  0
SECTION
  2
HEADER
  9
$ACADVER
  1
AC1009
  9
$INSBASE
 10
0.0
 20
0.0
 30
0.0
  9
$EXTMIN
 10
0.0
 20
0.0
 30
0.0
  9
$EXTMAX
 10
0.0
 20
0.0
 30
0.0
  0
ENDSEC
  0
SECTION
  2
TABLES
  0
TABLE
  2
VPORT
 70
0
  0
ENDTAB
  0
TABLE
  2
LTYPE
 70
1
  0
LTYPE
  2
CONTINUOUS
 70
0
  3
Solid line
 72
65
 73
0
 40
0.0
  0
ENDTAB
  0
TABLE
  2
LAYER
 70
1
  0
LAYER
  2
0
 70
64
 62
7
  6
continuous
  0
ENDTAB
  0
TABLE
  2
STYLE
 70
1
  0
STYLE
  2
STANDARD
 70
0
 40
0
 41
1.0
 50
0.0
 71
0
 42
1
 3
ARIAL.TTF
 4

  0
ENDTAB
  0
TABLE
  2
VIEW
 70
0
  0
ENDTAB
  0
ENDSEC
  0
SECTION
  2
BLOCKS
  0
BLOCK
  8
0
  2
SHAPE2DVIEW
 70
0
 10
0.0
 20
0.0
 30
0.0
  3
SHAPE2DVIEW
  0
LINE
  8
0
 62
0
 10
40.4
 20
4.0
 30
0.0
 11
40.4
 21
13.716649999999987
 31
0.0
  0
LINE
  8
0
 62
0
 10
40.4
 20
13.716649999999994
 30
0.0
 11
44.4
 21
13.716649999999994
 31
0.0
  0
LINE
  8
0
 62
0
 10
36.43335
 20
4.0
 30
0.0
 11
40.4
 21
4.0
 31
0.0
  0
LINE
  8
0
 62
0
 10
44.4
 20
33.983349999999994
 30
0.0
 11
44.4
 21
13.716649999999994
 31
0.0
  0
LINE
  8
0
 62
0
 10
36.43335
 20
3.9999999999999964
 30
0.0
 11
36.43335
 21
-3.552713678800501e-15
 31
0.0
  0
LINE
  8
0
 62
0
 10
40.4
 20
33.983349999999994
 30
0.0
 11
44.4
 21
33.983349999999994
 31
0.0
  0
LINE
  8
0
 62
0
 10
40.4
 20
33.98335
 30
0.0
 11
40.4
 21
53.416649999999976
 31
0.0
  0
LINE
  8
0
 62
0
 10
40.4
 20
53.41664999999998
 30
0.0
 11
44.4
 21
53.41664999999998
 31
0.0
  0
LINE
  8
0
 62
0
 10
44.4
 20
73.68334999999999
 30
0.0
 11
44.4
 21
53.41664999999999
 31
0.0
  0
LINE
  8
0
 62
0
 10
40.4
 20
73.68334999999999
 30
0.0
 11
44.4
 21
73.68334999999999
 31
0.0
  0
LINE
  8
0
 62
0
 10
40.4
 20
73.68334999999999
 30
0.0
 11
40.4
 21
93.11664999999999
 31
0.0
  0
LINE
  8
0
 62
0
 10
40.4
 20
93.11664999999999
 30
0.0
 11
44.4
 21
93.11664999999999
 31
0.0
  0
LINE
  8
0
 62
0
 10
44.4
 20
113.38335000000001
 30
0.0
 11
44.4
 21
93.11665
 31
0.0
  0
LINE
  8
0
 62
0
 10
40.4
 20
113.38335000000001
 30
0.0
 11
44.4
 21
113.38335000000001
 31
0.0
  0
LINE
  8
0
 62
0
 10
40.4
 20
113.38335000000001
 30
0.0
 11
40.4
 21
132.81664999999998
 31
0.0
  0
LINE
  8
0
 62
0
 10
40.4
 20
132.81664999999998
 30
0.0
 11
44.4
 21
132.81664999999998
 31
0.0
  0
LINE
  8
0
 62
0
 10
44.4
 20
153.08335
 30
0.0
 11
44.4
 21
132.81664999999998
 31
0.0
  0
LINE
  8
0
 62
0
 10
40.4
 20
153.08335
 30
0.0
 11
44.4
 21
153.08335
 31
0.0
  0
LINE
  8
0
 62
0
 10
40.4
 20
153.08335
 30
0.0
 11
40.4
 21
172.51665
 31
0.0
  0
LINE
  8
0
 62
0
 10
40.4
 20
172.51665
 30
0.0
 11
44.4
 21
172.51665
 31
0.0
  0
LINE
  8
0
 62
0
 10
44.4
 20
192.78335
 30
0.0
 11
44.4
 21
172.51665000000003
 31
0.0
  0
LINE
  8
0
 62
0
 10
40.4
 20
192.78335
 30
0.0
 11
44.4
 21
192.78335
 31
0.0
  0
LINE
  8
0
 62
0
 10
40.4
 20
192.78334999999998
 30
0.0
 11
40.4
 21
212.21665
 31
0.0
  0
LINE
  8
0
 62
0
 10
40.4
 20
212.21665
 30
0.0
 11
44.4
 21
212.21665
 31
0.0
  0
LINE
  8
0
 62
0
 10
44.4
 20
232.48335
 30
0.0
 11
44.4
 21
212.21665000000002
 31
0.0
  0
LINE
  8
0
 62
0
 10
40.4
 20
232.48335
 30
0.0
 11
44.4
 21
232.48335
 31
0.0
  0
LINE
  8
0
 62
0
 10
40.4
 20
232.48335
 30
0.0
 11
40.4
 21
251.91665
 31
0.0
  0
LINE
  8
0
 62
0
 10
40.4
 20
251.91665
 30
0.0
 11
44.4
 21
251.91665
 31
0.0
  0
LINE
  8
0
 62
0
 10
44.4
 20
272.18335
 30
0.0
 11
44.4
 21
251.91665
 31
0.0
  0
LINE
  8
0
 62
0
 10
40.4
 20
272.18335
 30
0.0
 11
44.4
 21
272.18335
 31
0.0
  0
LINE
  8
0
 62
0
 10
40.4
 20
272.18335
 30
0.0
 11
40.4
 21
291.61665
 31
0.0
  0
LINE
  8
0
 62
0
 10
40.4
 20
291.61665
 30
0.0
 11
44.4
 21
291.61665
 31
0.0
  0
LINE
  8
0
 62
0
 10
44.4
 20
311.88335
 30
0.0
 11
44.4
 21
291.61665
 31
0.0
  0
LINE
  8
0
 62
0
 10
40.4
 20
311.88335
 30
0.0
 11
44.4
 21
311.88335
 31
0.0
  0
LINE
  8
0
 62
0
 10
40.4
 20
311.88335
 30
0.0
 11
40.4
 21
331.31665
 31
0.0
  0
LINE
  8
0
 62
0
 10
40.4
 20
331.31665000000004
 30
0.0
 11
44.4
 21
331.31665000000004
 31
0.0
  0
LINE
  8
0
 62
0
 10
44.4
 20
351.58335000000005
 30
0.0
 11
44.4
 21
331.31665000000004
 31
0.0
  0
LINE
  8
0
 62
0
 10
40.4
 20
351.58335000000005
 30
0.0
 11
44.4
 21
351.58335000000005
 31
0.0
  0
LINE
  8
0
 62
0
 10
40.4
 20
351.58335
 30
0.0
 11
40.4
 21
371.01665
 31
0.0
  0
LINE
  8
0
 62
0
 10
40.4
 20
371.01664999999997
 30
0.0
 11
44.4
 21
371.01664999999997
 31
0.0
  0
LINE
  8
0
 62
0
 10
44.4
 20
391.28335
 30
0.0
 11
44.4
 21
371.01664999999997
 31
0.0
  0
LINE
  8
0
 62
0
 10
40.4
 20
391.28335
 30
0.0
 11
44.4
 21
391.28335
 31
0.0
  0
LINE
  8
0
 62
0
 10
40.4
 20
391.28335000000004
 30
0.0
 11
40.4
 21
401.0
 31
0.0
  0
LINE
  8
0
 62
0
 10
40.4
 20
401.0
 30
0.0
 11
36.43335
 21
401.0
 31
0.0
  0
LINE
  8
0
 62
0
 10
36.43335
 20
401.0
 30
0.0
 11
36.43335
 21
405.0
 31
0.0
  0
LINE
  8
0
 62
0
 10
26.166649999999997
 20
405.0
 30
0.0
 11
36.43335
 21
405.0
 31
0.0
  0
LINE
  8
0
 62
0
 10
26.166649999999997
 20
401.0
 30
0.0
 11
26.166649999999997
 21
405.0
 31
0.0
  0
LINE
  8
0
 62
0
 10
26.166649999999997
 20
401.0
 30
0.0
 11
18.23335
 21
401.0
 31
0.0
  0
LINE
  8
0
 62
0
 10
18.23335
 20
401.0
 30
0.0
 11
18.23335
 21
405.0
 31
0.0
  0
LINE
  8
0
 62
0
 10
7.966649999999999
 20
405.0
 30
0.0
 11
18.233349999999998
 21
405.0
 31
0.0
  0
LINE
  8
0
 62
0
 10
7.96665
 20
401.0
 30
0.0
 11
7.966649999999999
 21
405.0
 31
0.0
  0
LINE
  8
0
 62
0
 10
7.966650000000001
 20
401.0
 30
0.0
 11
4.0
 21
401.0
 31
0.0
  0
LINE
  8
0
 62
0
 10
4.0
 20
401.0
 30
0.0
 11
4.0
 21
366.43335
 31
0.0
  0
LINE
  8
0
 62
0
 10
4.0
 20
366.43335
 30
0.0
 11
0.0
 21
366.43335
 31
0.0
  0
LINE
  8
0
 62
0
 10
0.0
 20
356.16665
 30
0.0
 11
0.0
 21
366.43335
 31
0.0
  0
LINE
  8
0
 62
0
 10
4.0
 20
356.16665
 30
0.0
 11
0.0
 21
356.16665
 31
0.0
  0
LINE
  8
0
 62
0
 10
4.0
 20
356.16665
 30
0.0
 11
4.0
 21
48.833349999999996
 31
0.0
  0
LINE
  8
0
 62
0
 10
4.0
 20
48.83334999999999
 30
0.0
 11
0.0
 21
48.83334999999999
 31
0.0
  0
LINE
  8
0
 62
0
 10
0.0
 20
38.56664999999999
 30
0.0
 11
0.0
 21
48.83334999999999
 31
0.0
  0
LINE
  8
0
 62
0
 10
4.0
 20
38.56664999999999
 30
0.0
 11
0.0
 21
38.56664999999999
 31
0.0
  0
LINE
  8
0
 62
0
 10
4.0
 20
38.56664999999998
 30
0.0
 11
4.0
 21
4.0
 31
0.0
  0
LINE
  8
0
 62
0
 10
4.0
 20
4.0
 30
0.0
 11
7.96665
 21
4.0
 31
0.0
  0
LINE
  8
0
 62
0
 10
7.96665
 20
4.000000000000003
 30
0.0
 11
7.966649999999999
 21
2.6645352591003757e-15
 31
0.0
  0
LINE
  8
0
 62
0
 10
18.233349999999998
 20
8.881784197001252e-16
 30
0.0
 11
7.966649999999998
 21
3.1678437650839442e-15
 31
0.0
  0
LINE
  8
0
 62
0
 10
18.23335
 20
4.000000000000001
 30
0.0
 11
18.23335
 21
8.881784197001252e-16
 31
0.0
  0
LINE
  8
0
 62
0
 10
18.23335
 20
4.0
 30
0.0
 11
26.166649999999997
 21
4.0
 31
0.0
  0
LINE
  8
0
 62
0
 10
26.166649999999997
 20
3.999999999999999
 30
0.0
 11
26.166649999999997
 21
-8.881784197001252e-16
 31
0.0
  0
LINE
  8
0
 62
0
 10
36.43335
 20
-3.1086244689504383e-15
 30
0.0
 11
26.166649999999997
 21
-8.289591235666193e-16
 31
0.0
  0
ENDBLK
  0
BLOCK
  8
0
  2
SHAPE2DVIEW003
 70
0
 10
0.0
 20
0.0
 30
0.0
  3
SHAPE2DVIEW003
  0
LINE
  8
0
 62
0
 10
54.39999999999999
 20
415.00000000000006
 30
0.0
 11
54.39999999999999
 21
426.09168333333344
 31
0.0
  0
LINE
  8
0
 62
0
 10
54.39999999999999
 20
426.0916833333334
 30
0.0
 11
58.07809318072954
 21
426.0916833333334
 31
0.0
  0
LINE
  8
0
 62
0
 10
62.63335
 20
415.00000000000006
 30
0.0
 11
54.4
 21
415.00000000000006
 31
0.0
  0
LINE
  8
0
 62
0
 10
62.63335
 20
415.00000000000006
 30
0.0
 11
62.63335
 21
418.6780931807296
 31
0.0
  0
ARC
  8
0
 62
0
 10
62.775571666666664
 20
418.92442833333337
 30
0.0
 40
0.2844433333333333
 50
90.0
 51
-120.00000000000374
  0
ARC
  8
0
 62
0
 10
62.775571666666664
 20
418.92442833333337
 30
0.0
 40
0.2844433333333333
 50
30.00000000000087
 51
90.0
  0
LINE
  8
0
 62
0
 10
71.97809318072953
 20
419.06665000000004
 30
0.0
 11
63.02190681927045
 21
419.06665000000004
 31
0.0
  0
ARC
  8
0
 62
0
 10
72.22442833333332
 20
418.92442833333337
 30
0.0
 40
0.2844433333333333
 50
90.0
 51
149.99999999999915
  0
ARC
  8
0
 62
0
 10
72.22442833333332
 20
418.92442833333337
 30
0.0
 40
0.2844433333333333
 50
-59.99999999999627
 51
90.0
  0
LINE
  8
0
 62
0
 10
72.36664999999999
 20
415.00000000000006
 30
0.0
 11
72.36664999999999
 21
418.6780931807296
 31
0.0
  0
LINE
  8
0
 62
0
 10
80.83335
 20
415.00000000000006
 30
0.0
 11
72.36664999999999
 21
415.00000000000006
 31
0.0
  0
LINE
  8
0
 62
0
 10
80.83335
 20
415.00000000000006
 30
0.0
 11
80.83335
 21
418.6780931807296
 31
0.0
  0
ARC
  8
0
 62
0
 10
80.97557166666667
 20
418.92442833333337
 30
0.0
 40
0.2844433333333333
 50
90.0
 51
-120.00000000000374
  0
ARC
  8
0
 62
0
 10
80.97557166666667
 20
418.92442833333337
 30
0.0
 40
0.2844433333333333
 50
30.00000000000087
 51
90.0
  0
LINE
  8
0
 62
0
 10
90.17809318072952
 20
419.06665000000004
 30
0.0
 11
81.22190681927044
 21
419.06665000000004
 31
0.0
  0
ARC
  8
0
 62
0
 10
90.42442833333332
 20
418.92442833333337
 30
0.0
 40
0.2844433333333333
 50
90.0
 51
149.99999999999915
  0
ARC
  8
0
 62
0
 10
90.42442833333332
 20
418.92442833333337
 30
0.0
 40
0.2844433333333333
 50
-59.99999999999627
 51
90.0
  0
LINE
  8
0
 62
0
 10
90.56664999999998
 20
415.00000000000006
 30
0.0
 11
90.56664999999998
 21
418.6780931807296
 31
0.0
  0
LINE
  8
0
 62
0
 10
98.8
 20
415.00000000000006
 30
0.0
 11
90.56665
 21
415.00000000000006
 31
0.0
  0
LINE
  8
0
 62
0
 10
98.8
 20
473.00835
 30
0.0
 11
98.8
 21
415.0
 31
0.0
  0
LINE
  8
0
 62
0
 10
95.12190681927045
 20
473.00835
 30
0.0
 11
98.8
 21
473.00835
 31
0.0
  0
ARC
  8
0
 62
0
 10
94.87557166666666
 20
473.1505716666667
 30
0.0
 40
0.2844433333333333
 50
120.00000000000374
 51
-30.00000000000087
  0
LINE
  8
0
 62
0
 10
94.73335
 20
473.3969068192705
 30
0.0
 11
94.73335
 21
482.35309318072956
 31
0.0
  0
ARC
  8
0
 62
0
 10
94.87557166666666
 20
482.5994283333333
 30
0.0
 40
0.2844433333333333
 50
29.999999999999446
 51
-120.00000000000374
  0
LINE
  8
0
 62
0
 10
95.12190681927046
 20
482.74165
 30
0.0
 11
98.8
 21
482.74165
 31
0.0
  0
LINE
  8
0
 62
0
 10
98.8
 20
598.75835
 30
0.0
 11
98.8
 21
482.74165
 31
0.0
  0
LINE
  8
0
 62
0
 10
95.12190681927046
 20
598.75835
 30
0.0
 11
98.8
 21
598.75835
 31
0.0
  0
ARC
  8
0
 62
0
 10
94.87557166666666
 20
598.9005716666667
 30
0.0
 40
0.2844433333333333
 50
119.99999999999801
 51
-29.99999999999096
  0
LINE
  8
0
 62
0
 10
94.73335
 20
599.1469068192704
 30
0.0
 11
94.73335
 21
608.1030931807295
 31
0.0
  0
ARC
  8
0
 62
0
 10
94.87557166666666
 20
608.3494283333333
 30
0.0
 40
0.2844433333333333
 50
30.000000000010793
 51
-119.99999999999801
  0
LINE
  8
0
 62
0
 10
95.12190681927045
 20
608.49165
 30
0.0
 11
98.8
 21
608.49165
 31
0.0
  0
LINE
  8
0
 62
0
 10
98.8
 20
666.5
 30
0.0
 11
98.8
 21
608.4916499999999
 31
0.0
  0
LINE
  8
0
 62
0
 10
92.83335
 20
666.5
 30
0.0
 11
98.79999999999998
 21
666.5
 31
0.0
  0
LINE
  8
0
 62
0
 10
92.83335
 20
666.5
 30
0.0
 11
92.83335
 21
670.5
 31
0.0
  0
LINE
  8
0
 62
0
 10
92.83335
 20
670.5
 30
0.0
 11
82.56665
 21
670.5
 31
0.0
  0
LINE
  8
0
 62
0
 10
82.56664999999998
 20
666.5
 30
0.0
 11
82.56664999999998
 21
670.5
 31
0.0
  0
LINE
  8
0
 62
0
 10
70.63335
 20
666.5
 30
0.0
 11
82.56664999999998
 21
666.5
 31
0.0
  0
LINE
  8
0
 62
0
 10
70.63335000000001
 20
666.5
 30
0.0
 11
70.63335000000001
 21
670.5
 31
0.0
  0
LINE
  8
0
 62
0
 10
70.63335000000001
 20
670.5
 30
0.0
 11
60.36665000000001
 21
670.5
 31
0.0
  0
LINE
  8
0
 62
0
 10
60.36665
 20
666.5
 30
0.0
 11
60.36665
 21
670.5
 31
0.0
  0
LINE
  8
0
 62
0
 10
54.39999999999999
 20
666.5
 30
0.0
 11
60.36664999999999
 21
666.5
 31
0.0
  0
LINE
  8
0
 62
0
 10
54.39999999999999
 20
655.4083166666667
 30
0.0
 11
54.39999999999999
 21
666.5
 31
0.0
  0
LINE
  8
0
 62
0
 10
54.39999999999999
 20
655.4083166666667
 30
0.0
 11
58.07809318072953
 21
655.4083166666667
 31
0.0
  0
ARC
  8
0
 62
0
 10
58.32442833333332
 20
655.266095
 30
0.0
 40
0.2844433333333333
 50
-0.0
 51
150.00000000000975
  0
ARC
  8
0
 62
0
 10
58.32442833333332
 20
655.266095
 30
0.0
 40
0.2844433333333333
 50
-60.000000000003226
 51
-0.0
  0
LINE
  8
0
 62
0
 10
58.466649999999994
 20
636.063573485937
 30
0.0
 11
58.466649999999994
 21
655.0197598473961
 31
0.0
  0
ARC
  8
0
 62
0
 10
58.32442833333332
 20
635.8172383333333
 30
0.0
 40
0.2844433333333333
 50
-0.0
 51
60.000000000003226
  0
ARC
  8
0
 62
0
 10
58.32442833333332
 20
635.8172383333333
 30
0.0
 40
0.2844433333333333
 50
-149.99999999998923
 51
-0.0
  0
LINE
  8
0
 62
0
 10
54.39999999999999
 20
635.6750166666666
 30
0.0
 11
58.07809318072954
 21
635.6750166666666
 31
0.0
  0
LINE
  8
0
 62
0
 10
54.39999999999999
 20
613.49165
 30
0.0
 11
54.39999999999999
 21
635.6750166666667
 31
0.0
  0
LINE
  8
0
 62
0
 10
54.39999999999999
 20
613.49165
 30
0.0
 11
58.07809318072954
 21
613.49165
 31
0.0
  0
ARC
  8
0
 62
0
 10
58.32442833333332
 20
613.3494283333333
 30
0.0
 40
0.2844433333333333
 50
-0.0
 51
149.99999999998923
  0
ARC
  8
0
 62
0
 10
58.32442833333332
 20
613.3494283333333
 30
0.0
 40
0.2844433333333333
 50
-60.000000000003226
 51
-0.0
  0
LINE
  8
0
 62
0
 10
58.466649999999994
 20
594.1469068192704
 30
0.0
 11
58.466649999999994
 21
613.1030931807295
 31
0.0
  0
ARC
  8
0
 62
0
 10
58.32442833333332
 20
593.9005716666667
 30
0.0
 40
0.2844433333333333
 50
-0.0
 51
60.000000000003226
  0
ARC
  8
0
 62
0
 10
58.32442833333332
 20
593.9005716666667
 30
0.0
 40
0.2844433333333333
 50
-150.00000000000904
 51
-0.0
  0
LINE
  8
0
 62
0
 10
54.39999999999999
 20
593.75835
 30
0.0
 11
58.07809318072953
 21
593.75835
 31
0.0
  0
LINE
  8
0
 62
0
 10
54.39999999999999
 20
571.5749833333334
 30
0.0
 11
54.39999999999999
 21
593.7583500000001
 31
0.0
  0
LINE
  8
0
 62
0
 10
54.39999999999999
 20
571.5749833333334
 30
0.0
 11
58.07809318072954
 21
571.5749833333334
 31
0.0
  0
ARC
  8
0
 62
0
 10
58.32442833333332
 20
571.4327616666667
 30
0.0
 40
0.2844433333333333
 50
-0.0
 51
149.99999999998923
  0
ARC
  8
0
 62
0
 10
58.32442833333332
 20
571.4327616666667
 30
0.0
 40
0.2844433333333333
 50
-60.000000000003226
 51
-0.0
  0
LINE
  8
0
 62
0
 10
58.466649999999994
 20
552.2302401526038
 30
0.0
 11
58.466649999999994
 21
571.1864265140629
 31
0.0
  0
ARC
  8
0
 62
0
 10
58.32442833333332
 20
551.983905
 30
0.0
 40
0.2844433333333333
 50
-0.0
 51
60.000000000003226
  0
ARC
  8
0
 62
0
 10
58.32442833333332
 20
551.983905
 30
0.0
 40
0.2844433333333333
 50
-150.00000000000904
 51
-0.0
  0
LINE
  8
0
 62
0
 10
54.39999999999999
 20
551.8416833333333
 30
0.0
 11
58.07809318072953
 21
551.8416833333333
 31
0.0
  0
LINE
  8
0
 62
0
 10
54.39999999999999
 20
529.6583166666667
 30
0.0
 11
54.39999999999999
 21
551.8416833333333
 31
0.0
  0
LINE
  8
0
 62
0
 10
54.39999999999999
 20
529.6583166666667
 30
0.0
 11
58.07809318072953
 21
529.6583166666667
 31
0.0
  0
ARC
  8
0
 62
0
 10
58.32442833333332
 20
529.516095
 30
0.0
 40
0.2844433333333333
 50
-0.0
 51
150.00000000000904
  0
ARC
  8
0
 62
0
 10
58.32442833333332
 20
529.516095
 30
0.0
 40
0.2844433333333333
 50
-60.000000000003226
 51
-0.0
  0
LINE
  8
0
 62
0
 10
58.466649999999994
 20
510.31357348593707
 30
0.0
 11
58.466649999999994
 21
529.2697598473961
 31
0.0
  0
ARC
  8
0
 62
0
 10
58.32442833333332
 20
510.0672383333333
 30
0.0
 40
0.2844433333333333
 50
-0.0
 51
60.000000000003226
  0
ARC
  8
0
 62
0
 10
58.32442833333332
 20
510.0672383333333
 30
0.0
 40
0.2844433333333333
 50
-149.99999999999915
 51
-0.0
  0
LINE
  8
0
 62
0
 10
54.39999999999999
 20
509.92501666666664
 30
0.0
 11
58.07809318072954
 21
509.92501666666664
 31
0.0
  0
LINE
  8
0
 62
0
 10
54.39999999999999
 20
487.74165000000005
 30
0.0
 11
54.39999999999999
 21
509.9250166666667
 31
0.0
  0
LINE
  8
0
 62
0
 10
54.39999999999999
 20
487.74165
 30
0.0
 11
58.07809318072953
 21
487.74165
 31
0.0
  0
ARC
  8
0
 62
0
 10
58.32442833333332
 20
487.5994283333333
 30
0.0
 40
0.2844433333333333
 50
-0.0
 51
149.99999999999915
  0
ARC
  8
0
 62
0
 10
58.32442833333332
 20
487.5994283333333
 30
0.0
 40
0.2844433333333333
 50
-60.000000000003226
 51
-0.0
  0
LINE
  8
0
 62
0
 10
58.466649999999994
 20
468.3969068192705
 30
0.0
 11
58.466649999999994
 21
487.35309318072956
 31
0.0
  0
ARC
  8
0
 62
0
 10
58.32442833333332
 20
468.1505716666667
 30
0.0
 40
0.2844433333333333
 50
-0.0
 51
60.000000000003226
  0
ARC
  8
0
 62
0
 10
58.32442833333332
 20
468.1505716666667
 30
0.0
 40
0.2844433333333333
 50
-149.99999999999915
 51
-0.0
  0
LINE
  8
0
 62
0
 10
54.39999999999999
 20
468.00835
 30
0.0
 11
58.07809318072954
 21
468.00835
 31
0.0
  0
LINE
  8
0
 62
0
 10
54.39999999999999
 20
445.8249833333334
 30
0.0
 11
54.39999999999999
 21
468.00835000000006
 31
0.0
  0
LINE
  8
0
 62
0
 10
54.39999999999999
 20
445.82498333333336
 30
0.0
 11
58.07809318072953
 21
445.82498333333336
 31
0.0
  0
ARC
  8
0
 62
0
 10
58.32442833333332
 20
445.6827616666667
 30
0.0
 40
0.2844433333333333
 50
-0.0
 51
149.99999999999986
  0
ARC
  8
0
 62
0
 10
58.32442833333332
 20
445.6827616666667
 30
0.0
 40
0.2844433333333333
 50
-60.000000000003226
 51
-0.0
  0
LINE
  8
0
 62
0
 10
58.466649999999994
 20
426.48024015260387
 30
0.0
 11
58.466649999999994
 21
445.43642651406293
 31
0.0
  0
ARC
  8
0
 62
0
 10
58.32442833333332
 20
426.23390500000005
 30
0.0
 40
0.2844433333333333
 50
-0.0
 51
60.000000000003226
  0
ARC
  8
0
 62
0
 10
58.32442833333332
 20
426.23390500000005
 30
0.0
 40
0.2844433333333333
 50
-149.99999999999915
 51
-0.0
  0
ENDBLK
  0
BLOCK
  8
0
  2
SHAPE2DVIEW001
 70
0
 10
0.0
 20
0.0
 30
0.0
  3
SHAPE2DVIEW001
  0
LINE
  8
0
 62
0
 10
54.400000000000006
 20
4.0
 30
0.0
 11
65.22498333333334
 21
4.0
 31
0.0
  0
LINE
  8
0
 62
0
 10
65.22498333333334
 20
4.0
 30
0.0
 11
65.22498333333334
 21
0.0
 31
0.0
  0
LINE
  8
0
 62
0
 10
54.400000000000006
 20
13.983349999999973
 30
0.0
 11
54.400000000000006
 21
4.0
 31
0.0
  0
LINE
  8
0
 62
0
 10
54.400000000000006
 20
13.983349999999994
 30
0.0
 11
58.07809318072953
 21
13.983349999999994
 31
0.0
  0
LINE
  8
0
 62
0
 10
85.49168333333336
 20
0.0
 30
0.0
 11
65.22498333333336
 21
0.0
 31
0.0
  0
LINE
  8
0
 62
0
 10
85.49168333333336
 20
4.0
 30
0.0
 11
85.49168333333336
 21
0.0
 31
0.0
  0
LINE
  8
0
 62
0
 10
54.400000000000006
 20
391.01664999999997
 30
0.0
 11
58.07809318072955
 21
391.01664999999997
 31
0.0
  0
LINE
  8
0
 62
0
 10
54.400000000000006
 20
401.0
 30
0.0
 11
54.400000000000006
 21
391.01665
 31
0.0
  0
LINE
  8
0
 62
0
 10
65.22498333333331
 20
401.0
 30
0.0
 11
54.39999999999998
 21
401.0
 31
0.0
  0
LINE
  8
0
 62
0
 10
65.22498333333334
 20
401.0
 30
0.0
 11
65.22498333333334
 21
405.0
 31
0.0
  0
LINE
  8
0
 62
0
 10
65.22498333333334
 20
405.0
 30
0.0
 11
85.49168333333334
 21
405.0
 31
0.0
  0
LINE
  8
0
 62
0
 10
107.14164999999997
 20
401.0
 30
0.0
 11
85.49168333333333
 21
401.0
 31
0.0
  0
LINE
  8
0
 62
0
 10
85.49168333333336
 20
401.0
 30
0.0
 11
85.49168333333336
 21
405.0
 31
0.0
  0
LINE
  8
0
 62
0
 10
107.14165
 20
401.0
 30
0.0
 11
107.14165
 21
405.0
 31
0.0
  0
LINE
  8
0
 62
0
 10
107.14165
 20
405.0
 30
0.0
 11
127.40835
 21
405.0
 31
0.0
  0
LINE
  8
0
 62
0
 10
149.05831666666666
 20
401.0
 30
0.0
 11
127.40834999999998
 21
401.0
 31
0.0
  0
LINE
  8
0
 62
0
 10
127.40835000000001
 20
401.0
 30
0.0
 11
127.40835000000001
 21
405.0
 31
0.0
  0
LINE
  8
0
 62
0
 10
149.05831666666666
 20
401.0
 30
0.0
 11
149.05831666666666
 21
405.0
 31
0.0
  0
LINE
  8
0
 62
0
 10
149.05831666666666
 20
405.0
 30
0.0
 11
169.32501666666667
 21
405.0
 31
0.0
  0
LINE
  8
0
 62
0
 10
190.9749833333333
 20
401.0
 30
0.0
 11
169.32501666666664
 21
401.0
 31
0.0
  0
LINE
  8
0
 62
0
 10
169.32501666666667
 20
401.0
 30
0.0
 11
169.32501666666667
 21
405.0
 31
0.0
  0
LINE
  8
0
 62
0
 10
190.97498333333334
 20
401.0
 30
0.0
 11
190.97498333333334
 21
405.0
 31
0.0
  0
LINE
  8
0
 62
0
 10
190.97498333333334
 20
405.0
 30
0.0
 11
211.24168333333336
 21
405.0
 31
0.0
  0
LINE
  8
0
 62
0
 10
232.89164999999997
 20
401.0
 30
0.0
 11
211.2416833333333
 21
401.0
 31
0.0
  0
LINE
  8
0
 62
0
 10
211.24168333333336
 20
401.0
 30
0.0
 11
211.24168333333336
 21
405.0
 31
0.0
  0
LINE
  8
0
 62
0
 10
232.89165
 20
401.0
 30
0.0
 11
232.89165
 21
405.0
 31
0.0
  0
LINE
  8
0
 62
0
 10
232.89165
 20
405.0
 30
0.0
 11
253.15834999999998
 21
405.0
 31
0.0
  0
LINE
  8
0
 62
0
 10
274.80831666666666
 20
401.0
 30
0.0
 11
253.15834999999998
 21
401.0
 31
0.0
  0
LINE
  8
0
 62
0
 10
253.15835
 20
401.0
 30
0.0
 11
253.15835
 21
405.0
 31
0.0
  0
LINE
  8
0
 62
0
 10
274.80831666666666
 20
401.0
 30
0.0
 11
274.80831666666666
 21
405.0
 31
0.0
  0
LINE
  8
0
 62
0
 10
274.80831666666666
 20
405.0
 30
0.0
 11
295.07501666666667
 21
405.0
 31
0.0
  0
LINE
  8
0
 62
0
 10
305.9
 20
401.0
 30
0.0
 11
295.07501666666667
 21
401.0
 31
0.0
  0
LINE
  8
0
 62
0
 10
305.9
 20
391.28335000000004
 30
0.0
 11
305.9
 21
401.0
 31
0.0
  0
LINE
  8
0
 62
0
 10
295.07501666666667
 20
401.0
 30
0.0
 11
295.07501666666667
 21
405.0
 31
0.0
  0
LINE
  8
0
 62
0
 10
305.9
 20
391.28335
 30
0.0
 11
309.9
 21
391.28335
 31
0.0
  0
LINE
  8
0
 62
0
 10
309.9
 20
391.28335
 30
0.0
 11
309.9
 21
371.01664999999997
 31
0.0
  0
LINE
  8
0
 62
0
 10
305.9
 20
351.58335
 30
0.0
 11
305.9
 21
371.01665
 31
0.0
  0
LINE
  8
0
 62
0
 10
305.9
 20
371.01664999999997
 30
0.0
 11
309.9
 21
371.01664999999997
 31
0.0
  0
LINE
  8
0
 62
0
 10
305.9
 20
351.58335000000005
 30
0.0
 11
309.9
 21
351.58335000000005
 31
0.0
  0
LINE
  8
0
 62
0
 10
309.9
 20
351.58335000000005
 30
0.0
 11
309.9
 21
331.31665000000004
 31
0.0
  0
LINE
  8
0
 62
0
 10
305.9
 20
311.88335
 30
0.0
 11
305.9
 21
331.31665
 31
0.0
  0
LINE
  8
0
 62
0
 10
305.9
 20
331.31665000000004
 30
0.0
 11
309.9
 21
331.31665000000004
 31
0.0
  0
LINE
  8
0
 62
0
 10
305.9
 20
311.88335
 30
0.0
 11
309.9
 21
311.88335
 31
0.0
  0
LINE
  8
0
 62
0
 10
309.9
 20
311.88335
 30
0.0
 11
309.9
 21
291.61665
 31
0.0
  0
LINE
  8
0
 62
0
 10
305.9
 20
272.18335
 30
0.0
 11
305.9
 21
291.61665
 31
0.0
  0
LINE
  8
0
 62
0
 10
305.9
 20
291.61665
 30
0.0
 11
309.9
 21
291.61665
 31
0.0
  0
LINE
  8
0
 62
0
 10
305.9
 20
272.18335
 30
0.0
 11
309.9
 21
272.18335
 31
0.0
  0
LINE
  8
0
 62
0
 10
309.9
 20
272.18335
 30
0.0
 11
309.9
 21
251.91665
 31
0.0
  0
LINE
  8
0
 62
0
 10
305.9
 20
232.48335
 30
0.0
 11
305.9
 21
251.91665
 31
0.0
  0
LINE
  8
0
 62
0
 10
305.9
 20
251.91665
 30
0.0
 11
309.9
 21
251.91665
 31
0.0
  0
LINE
  8
0
 62
0
 10
305.9
 20
232.48335
 30
0.0
 11
309.9
 21
232.48335
 31
0.0
  0
LINE
  8
0
 62
0
 10
309.9
 20
232.48335
 30
0.0
 11
309.9
 21
212.21665000000002
 31
0.0
  0
LINE
  8
0
 62
0
 10
305.9
 20
192.78334999999998
 30
0.0
 11
305.9
 21
212.21665
 31
0.0
  0
LINE
  8
0
 62
0
 10
305.9
 20
212.21665
 30
0.0
 11
309.9
 21
212.21665
 31
0.0
  0
LINE
  8
0
 62
0
 10
305.9
 20
192.78335
 30
0.0
 11
309.9
 21
192.78335
 31
0.0
  0
LINE
  8
0
 62
0
 10
309.9
 20
192.78335
 30
0.0
 11
309.9
 21
172.51665000000003
 31
0.0
  0
LINE
  8
0
 62
0
 10
305.9
 20
153.08335
 30
0.0
 11
305.9
 21
172.51665
 31
0.0
  0
LINE
  8
0
 62
0
 10
305.9
 20
172.51665
 30
0.0
 11
309.9
 21
172.51665
 31
0.0
  0
LINE
  8
0
 62
0
 10
305.9
 20
153.08335
 30
0.0
 11
309.9
 21
153.08335
 31
0.0
  0
LINE
  8
0
 62
0
 10
309.9
 20
153.08335
 30
0.0
 11
309.9
 21
132.81664999999998
 31
0.0
  0
LINE
  8
0
 62
0
 10
305.9
 20
113.38335000000001
 30
0.0
 11
305.9
 21
132.81664999999998
 31
0.0
  0
LINE
  8
0
 62
0
 10
305.9
 20
132.81664999999998
 30
0.0
 11
309.9
 21
132.81664999999998
 31
0.0
  0
LINE
  8
0
 62
0
 10
305.9
 20
113.38335000000001
 30
0.0
 11
309.9
 21
113.38335000000001
 31
0.0
  0
LINE
  8
0
 62
0
 10
309.9
 20
113.38335000000001
 30
0.0
 11
309.9
 21
93.11665
 31
0.0
  0
LINE
  8
0
 62
0
 10
305.9
 20
73.68334999999999
 30
0.0
 11
305.9
 21
93.11664999999999
 31
0.0
  0
LINE
  8
0
 62
0
 10
305.9
 20
93.11664999999999
 30
0.0
 11
309.9
 21
93.11664999999999
 31
0.0
  0
LINE
  8
0
 62
0
 10
305.9
 20
73.68334999999999
 30
0.0
 11
309.9
 21
73.68334999999999
 31
0.0
  0
LINE
  8
0
 62
0
 10
309.9
 20
73.68334999999999
 30
0.0
 11
309.9
 21
53.41664999999999
 31
0.0
  0
LINE
  8
0
 62
0
 10
305.9
 20
33.98335
 30
0.0
 11
305.9
 21
53.416649999999976
 31
0.0
  0
LINE
  8
0
 62
0
 10
305.9
 20
53.41664999999998
 30
0.0
 11
309.9
 21
53.41664999999998
 31
0.0
  0
LINE
  8
0
 62
0
 10
305.9
 20
33.983349999999994
 30
0.0
 11
309.9
 21
33.983349999999994
 31
0.0
  0
LINE
  8
0
 62
0
 10
309.9
 20
33.983349999999994
 30
0.0
 11
309.9
 21
13.716649999999994
 31
0.0
  0
LINE
  8
0
 62
0
 10
305.9
 20
4.0
 30
0.0
 11
305.9
 21
13.716649999999987
 31
0.0
  0
LINE
  8
0
 62
0
 10
295.07501666666667
 20
4.0
 30
0.0
 11
305.9
 21
4.0
 31
0.0
  0
LINE
  8
0
 62
0
 10
305.9
 20
13.716649999999994
 30
0.0
 11
309.9
 21
13.716649999999994
 31
0.0
  0
LINE
  8
0
 62
0
 10
295.07501666666667
 20
4.0
 30
0.0
 11
295.07501666666667
 21
0.0
 31
0.0
  0
LINE
  8
0
 62
0
 10
295.07501666666667
 20
0.0
 30
0.0
 11
274.80831666666666
 21
0.0
 31
0.0
  0
LINE
  8
0
 62
0
 10
253.15835
 20
4.0
 30
0.0
 11
274.80831666666666
 21
4.0
 31
0.0
  0
LINE
  8
0
 62
0
 10
274.80831666666666
 20
4.0
 30
0.0
 11
274.80831666666666
 21
0.0
 31
0.0
  0
LINE
  8
0
 62
0
 10
253.15835
 20
4.0
 30
0.0
 11
253.15835
 21
0.0
 31
0.0
  0
LINE
  8
0
 62
0
 10
253.15835
 20
0.0
 30
0.0
 11
232.89165000000003
 21
0.0
 31
0.0
  0
LINE
  8
0
 62
0
 10
211.24168333333333
 20
4.0
 30
0.0
 11
232.89165
 21
4.0
 31
0.0
  0
LINE
  8
0
 62
0
 10
232.89165
 20
4.0
 30
0.0
 11
232.89165
 21
0.0
 31
0.0
  0
LINE
  8
0
 62
0
 10
211.24168333333336
 20
4.0
 30
0.0
 11
211.24168333333336
 21
0.0
 31
0.0
  0
LINE
  8
0
 62
0
 10
211.24168333333336
 20
0.0
 30
0.0
 11
190.97498333333334
 21
0.0
 31
0.0
  0
LINE
  8
0
 62
0
 10
169.32501666666667
 20
4.0
 30
0.0
 11
190.97498333333334
 21
4.0
 31
0.0
  0
LINE
  8
0
 62
0
 10
190.97498333333334
 20
4.0
 30
0.0
 11
190.97498333333334
 21
0.0
 31
0.0
  0
LINE
  8
0
 62
0
 10
169.32501666666667
 20
4.0
 30
0.0
 11
169.32501666666667
 21
0.0
 31
0.0
  0
LINE
  8
0
 62
0
 10
169.32501666666667
 20
0.0
 30
0.0
 11
149.05831666666666
 21
0.0
 31
0.0
  0
LINE
  8
0
 62
0
 10
127.40835000000001
 20
4.0
 30
0.0
 11
149.05831666666668
 21
4.0
 31
0.0
  0
LINE
  8
0
 62
0
 10
149.05831666666666
 20
4.0
 30
0.0
 11
149.05831666666666
 21
0.0
 31
0.0
  0
LINE
  8
0
 62
0
 10
127.40835000000001
 20
4.0
 30
0.0
 11
127.40835000000001
 21
0.0
 31
0.0
  0
LINE
  8
0
 62
0
 10
127.40835000000001
 20
0.0
 30
0.0
 11
107.14165000000001
 21
0.0
 31
0.0
  0
LINE
  8
0
 62
0
 10
85.49168333333336
 20
4.0
 30
0.0
 11
107.14165
 21
4.0
 31
0.0
  0
LINE
  8
0
 62
0
 10
107.14165
 20
4.0
 30
0.0
 11
107.14165
 21
0.0
 31
0.0
  0
ARC
  8
0
 62
0
 10
58.32442833333334
 20
390.8744283333333
 30
0.0
 40
0.2844433333333333
 50
-0.0
 51
149.99999999999915
  0
ARC
  8
0
 62
0
 10
58.32442833333334
 20
390.8744283333333
 30
0.0
 40
0.2844433333333333
 50
-60.000000000003226
 51
-0.0
  0
LINE
  8
0
 62
0
 10
58.46665
 20
390.6280931807295
 30
0.0
 11
58.46665
 21
371.6719068192704
 31
0.0
  0
ARC
  8
0
 62
0
 10
58.32442833333334
 20
371.42557166666666
 30
0.0
 40
0.2844433333333333
 50
-0.0
 51
60.000000000003226
  0
ARC
  8
0
 62
0
 10
58.32442833333334
 20
371.42557166666666
 30
0.0
 40
0.2844433333333333
 50
-150.00000000000057
 51
-0.0
  0
LINE
  8
0
 62
0
 10
54.400000000000006
 20
371.28335
 30
0.0
 11
58.07809318072953
 21
371.28335
 31
0.0
  0
LINE
  8
0
 62
0
 10
54.400000000000006
 20
371.28335000000004
 30
0.0
 11
54.400000000000006
 21
351.31665
 31
0.0
  0
LINE
  8
0
 62
0
 10
54.400000000000006
 20
351.31665000000004
 30
0.0
 11
58.07809318072955
 21
351.31665000000004
 31
0.0
  0
ARC
  8
0
 62
0
 10
58.32442833333334
 20
351.17442833333337
 30
0.0
 40
0.2844433333333333
 50
-0.0
 51
149.99999999999915
  0
ARC
  8
0
 62
0
 10
58.32442833333334
 20
351.17442833333337
 30
0.0
 40
0.2844433333333333
 50
-60.000000000003226
 51
-0.0
  0
LINE
  8
0
 62
0
 10
58.46665
 20
350.92809318072955
 30
0.0
 11
58.46665
 21
331.9719068192705
 31
0.0
  0
ARC
  8
0
 62
0
 10
58.32442833333334
 20
331.72557166666667
 30
0.0
 40
0.2844433333333333
 50
-0.0
 51
60.000000000003226
  0
ARC
  8
0
 62
0
 10
58.32442833333334
 20
331.72557166666667
 30
0.0
 40
0.2844433333333333
 50
-150.00000000000057
 51
-0.0
  0
LINE
  8
0
 62
0
 10
54.400000000000006
 20
331.58335000000005
 30
0.0
 11
58.07809318072953
 21
331.58335000000005
 31
0.0
  0
LINE
  8
0
 62
0
 10
54.400000000000006
 20
331.58335
 30
0.0
 11
54.400000000000006
 21
311.61665
 31
0.0
  0
LINE
  8
0
 62
0
 10
54.400000000000006
 20
311.61665
 30
0.0
 11
58.07809318072955
 21
311.61665
 31
0.0
  0
ARC
  8
0
 62
0
 10
58.32442833333334
 20
311.4744283333333
 30
0.0
 40
0.2844433333333333
 50
-0.0
 51
149.99999999999915
  0
ARC
  8
0
 62
0
 10
58.32442833333334
 20
311.4744283333333
 30
0.0
 40
0.2844433333333333
 50
-60.000000000003226
 51
-0.0
  0
LINE
  8
0
 62
0
 10
58.46665
 20
311.2280931807295
 30
0.0
 11
58.46665
 21
292.27190681927044
 31
0.0
  0
ARC
  8
0
 62
0
 10
58.32442833333334
 20
292.0255716666667
 30
0.0
 40
0.2844433333333333
 50
-0.0
 51
60.000000000003226
  0
ARC
  8
0
 62
0
 10
58.32442833333334
 20
292.0255716666667
 30
0.0
 40
0.2844433333333333
 50
-149.99999999999986
 51
-0.0
  0
LINE
  8
0
 62
0
 10
54.400000000000006
 20
291.88335
 30
0.0
 11
58.078093180729546
 21
291.88335
 31
0.0
  0
LINE
  8
0
 62
0
 10
54.400000000000006
 20
291.88335
 30
0.0
 11
54.400000000000006
 21
271.91665
 31
0.0
  0
LINE
  8
0
 62
0
 10
54.400000000000006
 20
271.91665
 30
0.0
 11
58.07809318072955
 21
271.91665
 31
0.0
  0
ARC
  8
0
 62
0
 10
58.32442833333334
 20
271.77442833333333
 30
0.0
 40
0.2844433333333333
 50
-0.0
 51
149.99999999999915
  0
ARC
  8
0
 62
0
 10
58.32442833333334
 20
271.77442833333333
 30
0.0
 40
0.2844433333333333
 50
-60.000000000003226
 51
-0.0
  0
LINE
  8
0
 62
0
 10
58.46665
 20
271.52809318072957
 30
0.0
 11
58.46665
 21
252.57190681927045
 31
0.0
  0
ARC
  8
0
 62
0
 10
58.32442833333334
 20
252.32557166666666
 30
0.0
 40
0.2844433333333333
 50
-0.0
 51
60.00000000000036
  0
ARC
  8
0
 62
0
 10
58.32442833333334
 20
252.32557166666666
 30
0.0
 40
0.2844433333333333
 50
-149.99999999999915
 51
-0.0
  0
LINE
  8
0
 62
0
 10
54.400000000000006
 20
252.18335000000002
 30
0.0
 11
58.078093180729546
 21
252.18335000000002
 31
0.0
  0
LINE
  8
0
 62
0
 10
54.400000000000006
 20
252.18335000000002
 30
0.0
 11
54.400000000000006
 21
232.21665
 31
0.0
  0
LINE
  8
0
 62
0
 10
54.400000000000006
 20
232.21665
 30
0.0
 11
58.07809318072955
 21
232.21665
 31
0.0
  0
ARC
  8
0
 62
0
 10
58.32442833333334
 20
232.07442833333334
 30
0.0
 40
0.2844433333333333
 50
-0.0
 51
149.99999999999915
  0
ARC
  8
0
 62
0
 10
58.32442833333334
 20
232.07442833333334
 30
0.0
 40
0.2844433333333333
 50
-60.00000000000036
 51
-0.0
  0
LINE
  8
0
 62
0
 10
58.46665
 20
231.82809318072952
 30
0.0
 11
58.46665
 21
212.87190681927044
 31
0.0
  0
ARC
  8
0
 62
0
 10
58.32442833333334
 20
212.62557166666667
 30
0.0
 40
0.2844433333333333
 50
-0.0
 51
60.00000000000036
  0
ARC
  8
0
 62
0
 10
58.32442833333334
 20
212.62557166666667
 30
0.0
 40
0.2844433333333333
 50
-149.99999999999915
 51
-0.0
  0
LINE
  8
0
 62
0
 10
54.400000000000006
 20
212.48335
 30
0.0
 11
58.078093180729546
 21
212.48335
 31
0.0
  0
LINE
  8
0
 62
0
 10
54.400000000000006
 20
212.48335
 30
0.0
 11
54.400000000000006
 21
192.51665
 31
0.0
  0
LINE
  8
0
 62
0
 10
54.400000000000006
 20
192.51665
 30
0.0
 11
58.078093180729546
 21
192.51665
 31
0.0
  0
ARC
  8
0
 62
0
 10
58.32442833333334
 20
192.37442833333333
 30
0.0
 40
0.2844433333333333
 50
-0.0
 51
149.99999999999915
  0
ARC
  8
0
 62
0
 10
58.32442833333334
 20
192.37442833333333
 30
0.0
 40
0.2844433333333333
 50
-60.00000000000036
 51
-0.0
  0
LINE
  8
0
 62
0
 10
58.46665
 20
192.12809318072954
 30
0.0
 11
58.46665
 21
173.17190681927045
 31
0.0
  0
ARC
  8
0
 62
0
 10
58.32442833333334
 20
172.92557166666666
 30
0.0
 40
0.2844433333333333
 50
-0.0
 51
60.00000000000036
  0
ARC
  8
0
 62
0
 10
58.32442833333334
 20
172.92557166666666
 30
0.0
 40
0.2844433333333333
 50
-149.99999999999915
 51
-0.0
  0
LINE
  8
0
 62
0
 10
54.400000000000006
 20
172.78335
 30
0.0
 11
58.07809318072955
 21
172.78335
 31
0.0
  0
LINE
  8
0
 62
0
 10
54.400000000000006
 20
172.78334999999998
 30
0.0
 11
54.400000000000006
 21
152.81664999999998
 31
0.0
  0
LINE
  8
0
 62
0
 10
54.400000000000006
 20
152.81664999999998
 30
0.0
 11
58.078093180729546
 21
152.81664999999998
 31
0.0
  0
ARC
  8
0
 62
0
 10
58.32442833333334
 20
152.67442833333334
 30
0.0
 40
0.2844433333333333
 50
-0.0
 51
149.99999999999915
  0
ARC
  8
0
 62
0
 10
58.32442833333334
 20
152.67442833333334
 30
0.0
 40
0.2844433333333333
 50
-60.00000000000036
 51
-0.0
  0
LINE
  8
0
 62
0
 10
58.46665
 20
152.42809318072952
 30
0.0
 11
58.46665
 21
133.47190681927043
 31
0.0
  0
ARC
  8
0
 62
0
 10
58.32442833333334
 20
133.22557166666667
 30
0.0
 40
0.2844433333333333
 50
-0.0
 51
60.00000000000036
  0
ARC
  8
0
 62
0
 10
58.32442833333334
 20
133.22557166666667
 30
0.0
 40
0.2844433333333333
 50
-149.99999999999915
 51
-0.0
  0
LINE
  8
0
 62
0
 10
54.400000000000006
 20
133.08335
 30
0.0
 11
58.07809318072955
 21
133.08335
 31
0.0
  0
LINE
  8
0
 62
0
 10
54.400000000000006
 20
133.08335
 30
0.0
 11
54.400000000000006
 21
113.11664999999999
 31
0.0
  0
LINE
  8
0
 62
0
 10
54.400000000000006
 20
113.11664999999999
 30
0.0
 11
58.07809318072955
 21
113.11664999999999
 31
0.0
  0
ARC
  8
0
 62
0
 10
58.32442833333334
 20
112.97442833333332
 30
0.0
 40
0.2844433333333333
 50
-0.0
 51
149.99999999999915
  0
ARC
  8
0
 62
0
 10
58.32442833333334
 20
112.97442833333332
 30
0.0
 40
0.2844433333333333
 50
-60.00000000000036
 51
-0.0
  0
LINE
  8
0
 62
0
 10
58.46665
 20
112.72809318072953
 30
0.0
 11
58.46665
 21
93.77190681927046
 31
0.0
  0
ARC
  8
0
 62
0
 10
58.32442833333334
 20
93.52557166666666
 30
0.0
 40
0.2844433333333333
 50
-0.0
 51
60.00000000000036
  0
ARC
  8
0
 62
0
 10
58.32442833333334
 20
93.52557166666666
 30
0.0
 40
0.2844433333333333
 50
-150.00000000000233
 51
-0.0
  0
LINE
  8
0
 62
0
 10
54.400000000000006
 20
93.38335000000001
 30
0.0
 11
58.078093180729546
 21
93.38335000000001
 31
0.0
  0
LINE
  8
0
 62
0
 10
54.400000000000006
 20
93.38335000000001
 30
0.0
 11
54.400000000000006
 21
73.41665
 31
0.0
  0
LINE
  8
0
 62
0
 10
54.400000000000006
 20
73.41664999999998
 30
0.0
 11
58.07809318072955
 21
73.41664999999998
 31
0.0
  0
ARC
  8
0
 62
0
 10
58.32442833333334
 20
73.2744283333333
 30
0.0
 40
0.2844433333333333
 50
-0.0
 51
149.99999999999915
  0
ARC
  8
0
 62
0
 10
58.32442833333334
 20
73.2744283333333
 30
0.0
 40
0.2844433333333333
 50
-60.00000000000036
 51
-0.0
  0
LINE
  8
0
 62
0
 10
58.46665
 20
73.02809318072951
 30
0.0
 11
58.46665
 21
54.071906819270424
 31
0.0
  0
ARC
  8
0
 62
0
 10
58.32442833333334
 20
53.82557166666663
 30
0.0
 40
0.2844433333333333
 50
-0.0
 51
60.00000000000036
  0
ARC
  8
0
 62
0
 10
58.32442833333334
 20
53.82557166666663
 30
0.0
 40
0.2844433333333333
 50
-150.00000000000554
 51
-0.0
  0
LINE
  8
0
 62
0
 10
54.400000000000006
 20
53.68334999999998
 30
0.0
 11
58.07809318072953
 21
53.68334999999998
 31
0.0
  0
LINE
  8
0
 62
0
 10
54.400000000000006
 20
53.68335000000002
 30
0.0
 11
54.400000000000006
 21
33.71664999999996
 31
0.0
  0
LINE
  8
0
 62
0
 10
54.400000000000006
 20
33.716649999999994
 30
0.0
 11
58.07809318072955
 21
33.716649999999994
 31
0.0
  0
ARC
  8
0
 62
0
 10
58.32442833333334
 20
33.574428333333316
 30
0.0
 40
0.2844433333333333
 50
-0.0
 51
149.99999999999915
  0
ARC
  8
0
 62
0
 10
58.32442833333334
 20
33.574428333333316
 30
0.0
 40
0.2844433333333333
 50
-60.00000000000036
 51
-0.0
  0
LINE
  8
0
 62
0
 10
58.46665
 20
33.32809318072953
 30
0.0
 11
58.46665
 21
14.371906819270443
 31
0.0
  0
ARC
  8
0
 62
0
 10
58.32442833333334
 20
14.125571666666644
 30
0.0
 40
0.2844433333333333
 50
-0.0
 51
60.00000000000036
  0
ARC
  8
0
 62
0
 10
58.32442833333334
 20
14.125571666666644
 30
0.0
 40
0.2844433333333333
 50
-150.00000000000554
 51
-0.0
  0
ENDBLK
  0
BLOCK
  8
0
  2
SHAPE2DVIEW004
 70
0
 10
0.0
 20
0.0
 30
0.0
  3
SHAPE2DVIEW004
  0
LINE
  8
0
 62
0
 10
0.0
 20
684.5
 30
0.0
 11
57.74164999999999
 21
684.5
 31
0.0
  0
LINE
  8
0
 62
0
 10
57.741650000000014
 20
684.5
 30
0.0
 11
57.741650000000014
 21
680.5
 31
0.0
  0
LINE
  8
0
 62
0
 10
0.0
 20
719.33335
 30
0.0
 11
0.0
 21
684.5
 31
0.0
  0
LINE
  8
0
 62
0
 10
2.6645352591003757e-15
 20
719.33335
 30
0.0
 11
3.6780931807295474
 21
719.33335
 31
0.0
  0
LINE
  8
0
 62
0
 10
68.00835000000001
 20
680.5
 30
0.0
 11
57.74165000000001
 21
680.5
 31
0.0
  0
LINE
  8
0
 62
0
 10
68.00835000000001
 20
684.5
 30
0.0
 11
68.00835000000001
 21
680.5
 31
0.0
  0
LINE
  8
0
 62
0
 10
2.6645352591003757e-15
 20
1046.66665
 30
0.0
 11
3.6780931807295474
 21
1046.66665
 31
0.0
  0
LINE
  8
0
 62
0
 10
0.0
 20
1081.5
 30
0.0
 11
0.0
 21
1046.6666500000001
 31
0.0
  0
LINE
  8
0
 62
0
 10
57.74164999999999
 20
1081.5
 30
0.0
 11
0.0
 21
1081.5
 31
0.0
  0
LINE
  8
0
 62
0
 10
57.74165
 20
1081.5
 30
0.0
 11
57.74165
 21
1085.5
 31
0.0
  0
LINE
  8
0
 62
0
 10
57.74165
 20
1085.5
 30
0.0
 11
68.00835000000001
 21
1085.5
 31
0.0
  0
LINE
  8
0
 62
0
 10
183.49165
 20
1081.5
 30
0.0
 11
68.00835000000001
 21
1081.5
 31
0.0
  0
LINE
  8
0
 62
0
 10
68.00835000000001
 20
1081.5
 30
0.0
 11
68.00835000000001
 21
1085.5
 31
0.0
  0
LINE
  8
0
 62
0
 10
183.49165
 20
1081.5
 30
0.0
 11
183.49165
 21
1085.5
 31
0.0
  0
LINE
  8
0
 62
0
 10
183.49165
 20
1085.5
 30
0.0
 11
193.75835
 21
1085.5
 31
0.0
  0
LINE
  8
0
 62
0
 10
251.5
 20
1081.5
 30
0.0
 11
193.75835
 21
1081.5
 31
0.0
  0
LINE
  8
0
 62
0
 10
251.5
 20
684.5
 30
0.0
 11
251.5
 21
1081.5
 31
0.0
  0
LINE
  8
0
 62
0
 10
193.75835
 20
684.5
 30
0.0
 11
251.5
 21
684.5
 31
0.0
  0
LINE
  8
0
 62
0
 10
193.75835
 20
1081.5
 30
0.0
 11
193.75835
 21
1085.5
 31
0.0
  0
LINE
  8
0
 62
0
 10
193.75835
 20
684.5
 30
0.0
 11
193.75835
 21
680.5
 31
0.0
  0
LINE
  8
0
 62
0
 10
193.75835
 20
680.5
 30
0.0
 11
183.49165
 21
680.5
 31
0.0
  0
LINE
  8
0
 62
0
 10
68.00835000000001
 20
684.5
 30
0.0
 11
183.49165
 21
684.5
 31
0.0
  0
LINE
  8
0
 62
0
 10
183.49165
 20
684.5
 30
0.0
 11
183.49165
 21
680.5
 31
0.0
  0
ARC
  8
0
 62
0
 10
3.924428333333333
 20
1046.5244283333334
 30
0.0
 40
0.2844433333333333
 50
-0.0
 51
149.99999999998897
  0
ARC
  8
0
 62
0
 10
3.924428333333333
 20
1046.5244283333334
 30
0.0
 40
0.2844433333333333
 50
-59.99999999999132
 51
-0.0
  0
LINE
  8
0
 62
0
 10
4.06665
 20
1037.3219068192705
 30
0.0
 11
4.06665
 21
1046.2780931807295
 31
0.0
  0
ARC
  8
0
 62
0
 10
3.924428333333333
 20
1037.0755716666667
 30
0.0
 40
0.2844433333333333
 50
-0.0
 51
59.99999999999132
  0
ARC
  8
0
 62
0
 10
3.924428333333333
 20
1037.0755716666667
 30
0.0
 40
0.2844433333333333
 50
-149.99999999998892
 51
-0.0
  0
LINE
  8
0
 62
0
 10
2.6645352591003757e-15
 20
1036.93335
 30
0.0
 11
3.6780931807295474
 21
1036.93335
 31
0.0
  0
LINE
  8
0
 62
0
 10
0.0
 20
1036.93335
 30
0.0
 11
0.0
 21
729.06665
 31
0.0
  0
LINE
  8
0
 62
0
 10
2.6645352591003757e-15
 20
729.0666500000001
 30
0.0
 11
3.6780931807295474
 21
729.0666500000001
 31
0.0
  0
ARC
  8
0
 62
0
 10
3.924428333333333
 20
728.9244283333333
 30
0.0
 40
0.2844433333333333
 50
-0.0
 51
149.99999999998897
  0
ARC
  8
0
 62
0
 10
3.924428333333333
 20
728.9244283333333
 30
0.0
 40
0.2844433333333333
 50
-60.00000000000277
 51
-0.0
  0
LINE
  8
0
 62
0
 10
4.06665
 20
719.7219068192704
 30
0.0
 11
4.06665
 21
728.6780931807295
 31
0.0
  0
ARC
  8
0
 62
0
 10
3.924428333333333
 20
719.4755716666666
 30
0.0
 40
0.2844433333333333
 50
-0.0
 51
60.00000000000277
  0
ARC
  8
0
 62
0
 10
3.924428333333333
 20
719.4755716666666
 30
0.0
 40
0.2844433333333333
 50
-149.99999999998892
 51
-0.0
  0
ENDBLK
  0
BLOCK
  8
0
  2
SHAPE2DVIEW002
 70
0
 10
0.0
 20
0.0
 30
0.0
  3
SHAPE2DVIEW002
  0
LINE
  8
0
 62
0
 10
0.0
 20
414.99999999999994
 30
0.0
 11
0.0
 21
426.0916833333333
 31
0.0
  0
LINE
  8
0
 62
0
 10
-8.881784197001252e-16
 20
426.0916833333334
 30
0.0
 11
3.6780931807295416
 21
426.0916833333334
 31
0.0
  0
LINE
  8
0
 62
0
 10
8.233350000000002
 20
414.99999999999994
 30
0.0
 11
0.0
 21
414.99999999999994
 31
0.0
  0
LINE
  8
0
 62
0
 10
8.233350000000002
 20
414.99999999999994
 30
0.0
 11
8.233350000000002
 21
418.6780931807295
 31
0.0
  0
ARC
  8
0
 62
0
 10
8.375571666666666
 20
418.92442833333325
 30
0.0
 40
0.2844433333333333
 50
90.0
 51
-120.00000000000374
  0
ARC
  8
0
 62
0
 10
8.375571666666666
 20
418.92442833333325
 30
0.0
 40
0.2844433333333333
 50
30.00000000000087
 51
90.0
  0
LINE
  8
0
 62
0
 10
8.621906819270459
 20
419.0666499999999
 30
0.0
 11
17.578093180729542
 21
419.0666499999999
 31
0.0
  0
ARC
  8
0
 62
0
 10
17.824428333333334
 20
418.92442833333325
 30
0.0
 40
0.2844433333333333
 50
90.0
 51
149.99999999999915
  0
ARC
  8
0
 62
0
 10
17.824428333333334
 20
418.92442833333325
 30
0.0
 40
0.2844433333333333
 50
-59.99999999999627
 51
90.0
  0
LINE
  8
0
 62
0
 10
17.96665
 20
414.99999999999994
 30
0.0
 11
17.96665
 21
418.6780931807295
 31
0.0
  0
LINE
  8
0
 62
0
 10
26.43335
 20
414.99999999999994
 30
0.0
 11
17.96665
 21
414.99999999999994
 31
0.0
  0
LINE
  8
0
 62
0
 10
26.433349999999997
 20
414.99999999999994
 30
0.0
 11
26.433349999999997
 21
418.6780931807295
 31
0.0
  0
ARC
  8
0
 62
0
 10
26.57557166666667
 20
418.92442833333325
 30
0.0
 40
0.2844433333333333
 50
90.0
 51
-120.00000000000374
  0
ARC
  8
0
 62
0
 10
26.57557166666667
 20
418.92442833333325
 30
0.0
 40
0.2844433333333333
 50
30.00000000000087
 51
90.0
  0
LINE
  8
0
 62
0
 10
26.821906819270456
 20
419.0666499999999
 30
0.0
 11
35.77809318072954
 21
419.0666499999999
 31
0.0
  0
ARC
  8
0
 62
0
 10
36.02442833333333
 20
418.92442833333325
 30
0.0
 40
0.2844433333333333
 50
90.0
 51
149.99999999999915
  0
ARC
  8
0
 62
0
 10
36.02442833333333
 20
418.92442833333325
 30
0.0
 40
0.2844433333333333
 50
-59.99999999999627
 51
90.0
  0
LINE
  8
0
 62
0
 10
36.16665
 20
414.99999999999994
 30
0.0
 11
36.16665
 21
418.6780931807295
 31
0.0
  0
LINE
  8
0
 62
0
 10
44.4
 20
414.99999999999994
 30
0.0
 11
36.166650000000004
 21
414.99999999999994
 31
0.0
  0
LINE
  8
0
 62
0
 10
44.4
 20
473.0083499999999
 30
0.0
 11
44.4
 21
414.9999999999999
 31
0.0
  0
LINE
  8
0
 62
0
 10
40.72190681927045
 20
473.00835
 30
0.0
 11
44.39999999999999
 21
473.00835
 31
0.0
  0
ARC
  8
0
 62
0
 10
40.47557166666667
 20
473.1505716666667
 30
0.0
 40
0.2844433333333333
 50
120.00000000000374
 51
-30.00000000000087
  0
LINE
  8
0
 62
0
 10
40.333349999999996
 20
482.35309318072956
 30
0.0
 11
40.333349999999996
 21
473.39690681927044
 31
0.0
  0
ARC
  8
0
 62
0
 10
40.47557166666667
 20
482.5994283333333
 30
0.0
 40
0.2844433333333333
 50
30.000000000000146
 51
-120.00000000000374
  0
LINE
  8
0
 62
0
 10
40.72190681927046
 20
482.74165
 30
0.0
 11
44.39999999999999
 21
482.74165
 31
0.0
  0
LINE
  8
0
 62
0
 10
44.4
 20
598.7583499999998
 30
0.0
 11
44.4
 21
482.7416499999999
 31
0.0
  0
LINE
  8
0
 62
0
 10
40.721906819270465
 20
598.75835
 30
0.0
 11
44.39999999999999
 21
598.75835
 31
0.0
  0
ARC
  8
0
 62
0
 10
40.47557166666667
 20
598.9005716666667
 30
0.0
 40
0.2844433333333333
 50
119.99999999999801
 51
-29.999999999990248
  0
LINE
  8
0
 62
0
 10
40.333349999999996
 20
608.1030931807296
 30
0.0
 11
40.333349999999996
 21
599.1469068192705
 31
0.0
  0
ARC
  8
0
 62
0
 10
40.47557166666667
 20
608.3494283333333
 30
0.0
 40
0.2844433333333333
 50
30.000000000010793
 51
-119.99999999999801
  0
LINE
  8
0
 62
0
 10
40.72190681927045
 20
608.49165
 30
0.0
 11
44.39999999999999
 21
608.49165
 31
0.0
  0
LINE
  8
0
 62
0
 10
44.4
 20
666.4999999999999
 30
0.0
 11
44.4
 21
608.4916499999999
 31
0.0
  0
LINE
  8
0
 62
0
 10
38.433350000000004
 20
666.4999999999999
 30
0.0
 11
44.4
 21
666.4999999999999
 31
0.0
  0
LINE
  8
0
 62
0
 10
38.43335
 20
666.5
 30
0.0
 11
38.43335
 21
670.5
 31
0.0
  0
LINE
  8
0
 62
0
 10
38.43335
 20
670.5
 30
0.0
 11
28.166649999999997
 21
670.5
 31
0.0
  0
LINE
  8
0
 62
0
 10
28.166649999999997
 20
666.5
 30
0.0
 11
28.166649999999997
 21
670.5
 31
0.0
  0
LINE
  8
0
 62
0
 10
16.23335
 20
666.4999999999999
 30
0.0
 11
28.166649999999997
 21
666.4999999999999
 31
0.0
  0
LINE
  8
0
 62
0
 10
16.23335
 20
666.5
 30
0.0
 11
16.23335
 21
670.5
 31
0.0
  0
LINE
  8
0
 62
0
 10
16.23335
 20
670.5
 30
0.0
 11
5.966650000000001
 21
670.5
 31
0.0
  0
LINE
  8
0
 62
0
 10
5.96665
 20
666.5
 30
0.0
 11
5.96665
 21
670.5
 31
0.0
  0
LINE
  8
0
 62
0
 10
0.0
 20
666.4999999999999
 30
0.0
 11
5.966649999999998
 21
666.4999999999999
 31
0.0
  0
LINE
  8
0
 62
0
 10
0.0
 20
655.4083166666666
 30
0.0
 11
0.0
 21
666.5
 31
0.0
  0
LINE
  8
0
 62
0
 10
-8.881784197001252e-16
 20
655.4083166666667
 30
0.0
 11
3.6780931807295474
 21
655.4083166666667
 31
0.0
  0
ARC
  8
0
 62
0
 10
3.924428333333333
 20
655.266095
 30
0.0
 40
0.2844433333333333
 50
-0.0
 51
149.99999999998892
  0
ARC
  8
0
 62
0
 10
3.924428333333333
 20
655.266095
 30
0.0
 40
0.2844433333333333
 50
-60.00000000000277
 51
-0.0
  0
LINE
  8
0
 62
0
 10
4.06665
 20
655.0197598473962
 30
0.0
 11
4.06665
 21
636.0635734859371
 31
0.0
  0
ARC
  8
0
 62
0
 10
3.924428333333333
 20
635.8172383333333
 30
0.0
 40
0.2844433333333333
 50
-0.0
 51
60.00000000000277
  0
ARC
  8
0
 62
0
 10
3.924428333333333
 20
635.8172383333333
 30
0.0
 40
0.2844433333333333
 50
-150.00000000000955
 51
-0.0
  0
LINE
  8
0
 62
0
 10
-8.881784197001252e-16
 20
635.6750166666666
 30
0.0
 11
3.6780931807295416
 21
635.6750166666666
 31
0.0
  0
LINE
  8
0
 62
0
 10
0.0
 20
613.4916499999999
 30
0.0
 11
0.0
 21
635.6750166666666
 31
0.0
  0
LINE
  8
0
 62
0
 10
-8.881784197001252e-16
 20
613.49165
 30
0.0
 11
3.6780931807295474
 21
613.49165
 31
0.0
  0
ARC
  8
0
 62
0
 10
3.924428333333333
 20
613.3494283333333
 30
0.0
 40
0.2844433333333333
 50
-0.0
 51
149.99999999998892
  0
ARC
  8
0
 62
0
 10
3.924428333333333
 20
613.3494283333333
 30
0.0
 40
0.2844433333333333
 50
-60.00000000000277
 51
-0.0
  0
LINE
  8
0
 62
0
 10
4.06665
 20
613.1030931807296
 30
0.0
 11
4.06665
 21
594.1469068192705
 31
0.0
  0
ARC
  8
0
 62
0
 10
3.924428333333333
 20
593.9005716666667
 30
0.0
 40
0.2844433333333333
 50
-0.0
 51
60.00000000000277
  0
ARC
  8
0
 62
0
 10
3.924428333333333
 20
593.9005716666667
 30
0.0
 40
0.2844433333333333
 50
-150.00000000000924
 51
-0.0
  0
LINE
  8
0
 62
0
 10
-8.881784197001252e-16
 20
593.75835
 30
0.0
 11
3.6780931807295407
 21
593.75835
 31
0.0
  0
LINE
  8
0
 62
0
 10
0.0
 20
571.5749833333333
 30
0.0
 11
0.0
 21
593.75835
 31
0.0
  0
LINE
  8
0
 62
0
 10
-8.881784197001252e-16
 20
571.5749833333334
 30
0.0
 11
3.6780931807295465
 21
571.5749833333334
 31
0.0
  0
ARC
  8
0
 62
0
 10
3.924428333333333
 20
571.4327616666667
 30
0.0
 40
0.2844433333333333
 50
-0.0
 51
149.99999999998897
  0
ARC
  8
0
 62
0
 10
3.924428333333333
 20
571.4327616666667
 30
0.0
 40
0.2844433333333333
 50
-60.00000000000277
 51
-0.0
  0
LINE
  8
0
 62
0
 10
4.06665
 20
571.186426514063
 30
0.0
 11
4.06665
 21
552.2302401526039
 31
0.0
  0
ARC
  8
0
 62
0
 10
3.924428333333333
 20
551.983905
 30
0.0
 40
0.2844433333333333
 50
-0.0
 51
60.0000000000026
  0
ARC
  8
0
 62
0
 10
3.924428333333333
 20
551.983905
 30
0.0
 40
0.2844433333333333
 50
-150.00000000000887
 51
-0.0
  0
LINE
  8
0
 62
0
 10
-8.881784197001252e-16
 20
551.8416833333333
 30
0.0
 11
3.6780931807295456
 21
551.8416833333333
 31
0.0
  0
LINE
  8
0
 62
0
 10
0.0
 20
529.6583166666667
 30
0.0
 11
0.0
 21
551.8416833333333
 31
0.0
  0
LINE
  8
0
 62
0
 10
-8.881784197001252e-16
 20
529.6583166666667
 30
0.0
 11
3.6780931807295456
 21
529.6583166666667
 31
0.0
  0
ARC
  8
0
 62
0
 10
3.924428333333333
 20
529.516095
 30
0.0
 40
0.2844433333333333
 50
-0.0
 51
150.00000000000887
  0
ARC
  8
0
 62
0
 10
3.924428333333333
 20
529.516095
 30
0.0
 40
0.2844433333333333
 50
-60.00000000000277
 51
-0.0
  0
LINE
  8
0
 62
0
 10
4.06665
 20
529.2697598473962
 30
0.0
 11
4.06665
 21
510.3135734859371
 31
0.0
  0
ARC
  8
0
 62
0
 10
3.924428333333333
 20
510.0672383333333
 30
0.0
 40
0.2844433333333333
 50
-0.0
 51
60.00000000000277
  0
ARC
  8
0
 62
0
 10
3.924428333333333
 20
510.0672383333333
 30
0.0
 40
0.2844433333333333
 50
-149.99999999999886
 51
-0.0
  0
LINE
  8
0
 62
0
 10
-8.881784197001252e-16
 20
509.92501666666664
 30
0.0
 11
3.6780931807295465
 21
509.92501666666664
 31
0.0
  0
LINE
  8
0
 62
0
 10
0.0
 20
487.74164999999994
 30
0.0
 11
0.0
 21
509.9250166666666
 31
0.0
  0
LINE
  8
0
 62
0
 10
-8.881784197001252e-16
 20
487.74165
 30
0.0
 11
3.678093180729544
 21
487.74165
 31
0.0
  0
ARC
  8
0
 62
0
 10
3.924428333333333
 20
487.5994283333333
 30
0.0
 40
0.2844433333333333
 50
-0.0
 51
149.99999999999892
  0
ARC
  8
0
 62
0
 10
3.924428333333333
 20
487.5994283333333
 30
0.0
 40
0.2844433333333333
 50
-60.00000000000277
 51
-0.0
  0
LINE
  8
0
 62
0
 10
4.06665
 20
487.35309318072956
 30
0.0
 11
4.06665
 21
468.39690681927044
 31
0.0
  0
ARC
  8
0
 62
0
 10
3.924428333333333
 20
468.1505716666667
 30
0.0
 40
0.2844433333333333
 50
-0.0
 51
60.00000000000277
  0
ARC
  8
0
 62
0
 10
3.924428333333333
 20
468.1505716666667
 30
0.0
 40
0.2844433333333333
 50
-149.99999999999886
 51
-0.0
  0
LINE
  8
0
 62
0
 10
-8.881784197001252e-16
 20
468.00835
 30
0.0
 11
3.6780931807295474
 21
468.00835
 31
0.0
  0
LINE
  8
0
 62
0
 10
0.0
 20
445.8249833333333
 30
0.0
 11
0.0
 21
468.00834999999995
 31
0.0
  0
LINE
  8
0
 62
0
 10
-8.881784197001252e-16
 20
445.82498333333336
 30
0.0
 11
3.6780931807295474
 21
445.82498333333336
 31
0.0
  0
ARC
  8
0
 62
0
 10
3.924428333333333
 20
445.6827616666667
 30
0.0
 40
0.2844433333333333
 50
-0.0
 51
149.99999999999883
  0
ARC
  8
0
 62
0
 10
3.924428333333333
 20
445.6827616666667
 30
0.0
 40
0.2844433333333333
 50
-60.00000000000277
 51
-0.0
  0
LINE
  8
0
 62
0
 10
4.06665
 20
445.4364265140629
 30
0.0
 11
4.06665
 21
426.4802401526038
 31
0.0
  0
ARC
  8
0
 62
0
 10
3.924428333333333
 20
426.233905
 30
0.0
 40
0.2844433333333333
 50
-0.0
 51
60.00000000000277
  0
ARC
  8
0
 62
0
 10
3.924428333333333
 20
426.233905
 30
0.0
 40
0.2844433333333333
 50
-149.99999999999963
 51
-0.0
  0
ENDBLK
  0
BLOCK
  8
0
  2
SHAPE2DVIEW005
 70
0
 10
0.0
 20
0.0
 30
0.0
  3
SHAPE2DVIEW005
  0
LINE
  8
0
 62
0
 10
305.9
 20
680.5
 30
0.0
 11
305.9
 21
733.48335
 31
0.0
  0
LINE
  8
0
 62
0
 10
261.5
 20
680.5
 30
0.0
 11
305.9
 21
680.5
 31
0.0
  0
LINE
  8
0
 62
0
 10
261.5
 20
1163.5
 30
0.0
 11
261.5
 21
680.5
 31
0.0
  0
LINE
  8
0
 62
0
 10
305.9
 20
1163.5
 30
0.0
 11
261.5
 21
1163.5
 31
0.0
  0
LINE
  8
0
 62
0
 10
305.9
 20
733.48335
 30
0.0
 11
302.22190681927043
 21
733.48335
 31
0.0
  0
LINE
  8
0
 62
0
 10
305.9
 20
1110.51665
 30
0.0
 11
305.9
 21
1163.5
 31
0.0
  0
ARC
  8
0
 62
0
 10
301.97557166666667
 20
733.6255716666667
 30
0.0
 40
0.2844433333333333
 50
-180.0
 51
-29.999999999988084
  0
LINE
  8
0
 62
0
 10
305.9
 20
1110.51665
 30
0.0
 11
302.22190681927043
 21
1110.51665
 31
0.0
  0
ARC
  8
0
 62
0
 10
301.97557166666667
 20
733.6255716666667
 30
0.0
 40
0.2844433333333333
 50
119.99999999999801
 51
-180.0
  0
ARC
  8
0
 62
0
 10
301.97557166666667
 20
1110.3744283333333
 30
0.0
 40
0.2844433333333333
 50
30.000000000013642
 51
-180.0
  0
LINE
  8
0
 62
0
 10
301.83335
 20
752.8280931807296
 30
0.0
 11
301.83335
 21
733.8719068192705
 31
0.0
  0
ARC
  8
0
 62
0
 10
301.97557166666667
 20
1110.3744283333333
 30
0.0
 40
0.2844433333333333
 50
-180.0
 51
-120.00000000000945
  0
ARC
  8
0
 62
0
 10
301.97557166666667
 20
753.0744283333333
 30
0.0
 40
0.2844433333333333
 50
-180.0
 51
-119.99999999999801
  0
LINE
  8
0
 62
0
 10
301.83335
 20
1110.1280931807296
 30
0.0
 11
301.83335
 21
1091.1719068192706
 31
0.0
  0
ARC
  8
0
 62
0
 10
301.97557166666667
 20
753.0744283333333
 30
0.0
 40
0.2844433333333333
 50
30.000000000013642
 51
-180.0
  0
ARC
  8
0
 62
0
 10
301.97557166666667
 20
1090.9255716666667
 30
0.0
 40
0.2844433333333333
 50
120.00000000000945
 51
-180.0
  0
LINE
  8
0
 62
0
 10
305.9
 20
753.2166500000001
 30
0.0
 11
302.22190681927043
 21
753.2166500000001
 31
0.0
  0
ARC
  8
0
 62
0
 10
301.97557166666667
 20
1090.9255716666667
 30
0.0
 40
0.2844433333333333
 50
-180.0
 51
-30.00000000000792
  0
LINE
  8
0
 62
0
 10
305.9
 20
753.21665
 30
0.0
 11
305.9
 21
773.18335
 31
0.0
  0
LINE
  8
0
 62
0
 10
305.9
 20
1090.7833500000002
 30
0.0
 11
302.22190681927043
 21
1090.7833500000002
 31
0.0
  0
LINE
  8
0
 62
0
 10
305.9
 20
773.1833499999999
 30
0.0
 11
302.22190681927043
 21
773.1833499999999
 31
0.0
  0
LINE
  8
0
 62
0
 10
305.9
 20
1070.81665
 30
0.0
 11
305.9
 21
1090.7833500000002
 31
0.0
  0
ARC
  8
0
 62
0
 10
301.97557166666667
 20
773.3255716666666
 30
0.0
 40
0.2844433333333333
 50
-180.0
 51
-29.999999999988084
  0
LINE
  8
0
 62
0
 10
305.9
 20
1070.81665
 30
0.0
 11
302.22190681927043
 21
1070.81665
 31
0.0
  0
ARC
  8
0
 62
0
 10
301.97557166666667
 20
773.3255716666666
 30
0.0
 40
0.2844433333333333
 50
119.99999999999801
 51
-180.0
  0
ARC
  8
0
 62
0
 10
301.97557166666667
 20
1070.6744283333333
 30
0.0
 40
0.2844433333333333
 50
30.000000000013642
 51
-180.0
  0
LINE
  8
0
 62
0
 10
301.83335
 20
792.5280931807296
 30
0.0
 11
301.83335
 21
773.5719068192705
 31
0.0
  0
ARC
  8
0
 62
0
 10
301.97557166666667
 20
1070.6744283333333
 30
0.0
 40
0.2844433333333333
 50
-180.0
 51
-120.00000000000945
  0
ARC
  8
0
 62
0
 10
301.97557166666667
 20
792.7744283333333
 30
0.0
 40
0.2844433333333333
 50
-180.0
 51
-119.99999999999801
  0
LINE
  8
0
 62
0
 10
301.83335
 20
1070.4280931807295
 30
0.0
 11
301.83335
 21
1051.4719068192703
 31
0.0
  0
ARC
  8
0
 62
0
 10
301.97557166666667
 20
792.7744283333333
 30
0.0
 40
0.2844433333333333
 50
30.000000000013642
 51
-180.0
  0
ARC
  8
0
 62
0
 10
301.97557166666667
 20
1051.2255716666666
 30
0.0
 40
0.2844433333333333
 50
120.00000000000945
 51
-180.0
  0
LINE
  8
0
 62
0
 10
305.9
 20
792.91665
 30
0.0
 11
302.22190681927043
 21
792.91665
 31
0.0
  0
ARC
  8
0
 62
0
 10
301.97557166666667
 20
1051.2255716666666
 30
0.0
 40
0.2844433333333333
 50
-180.0
 51
-30.00000000000792
  0
LINE
  8
0
 62
0
 10
305.9
 20
792.91665
 30
0.0
 11
305.9
 21
812.8833500000001
 31
0.0
  0
LINE
  8
0
 62
0
 10
305.9
 20
1051.08335
 30
0.0
 11
302.22190681927043
 21
1051.08335
 31
0.0
  0
LINE
  8
0
 62
0
 10
305.9
 20
812.88335
 30
0.0
 11
302.22190681927043
 21
812.88335
 31
0.0
  0
LINE
  8
0
 62
0
 10
305.9
 20
1031.11665
 30
0.0
 11
305.9
 21
1051.0833499999999
 31
0.0
  0
ARC
  8
0
 62
0
 10
301.97557166666667
 20
813.0255716666667
 30
0.0
 40
0.2844433333333333
 50
-180.0
 51
-29.999999999988084
  0
LINE
  8
0
 62
0
 10
305.9
 20
1031.11665
 30
0.0
 11
302.22190681927043
 21
1031.11665
 31
0.0
  0
ARC
  8
0
 62
0
 10
301.97557166666667
 20
813.0255716666667
 30
0.0
 40
0.2844433333333333
 50
119.99999999999801
 51
-180.0
  0
ARC
  8
0
 62
0
 10
301.97557166666667
 20
1030.9744283333334
 30
0.0
 40
0.2844433333333333
 50
30.000000000013642
 51
-180.0
  0
LINE
  8
0
 62
0
 10
301.83335
 20
832.2280931807296
 30
0.0
 11
301.83335
 21
813.2719068192705
 31
0.0
  0
ARC
  8
0
 62
0
 10
301.97557166666667
 20
1030.9744283333334
 30
0.0
 40
0.2844433333333333
 50
-180.0
 51
-120.00000000000945
  0
ARC
  8
0
 62
0
 10
301.97557166666667
 20
832.4744283333333
 30
0.0
 40
0.2844433333333333
 50
-180.0
 51
-119.99999999999801
  0
LINE
  8
0
 62
0
 10
301.83335
 20
1030.7280931807295
 30
0.0
 11
301.83335
 21
1011.7719068192704
 31
0.0
  0
ARC
  8
0
 62
0
 10
301.97557166666667
 20
832.4744283333333
 30
0.0
 40
0.2844433333333333
 50
30.000000000013642
 51
-180.0
  0
ARC
  8
0
 62
0
 10
301.97557166666667
 20
1011.5255716666667
 30
0.0
 40
0.2844433333333333
 50
119.99999999999801
 51
-180.0
  0
LINE
  8
0
 62
0
 10
305.9
 20
832.61665
 30
0.0
 11
302.22190681927043
 21
832.61665
 31
0.0
  0
ARC
  8
0
 62
0
 10
301.97557166666667
 20
1011.5255716666667
 30
0.0
 40
0.2844433333333333
 50
-180.0
 51
-29.999999999988084
  0
LINE
  8
0
 62
0
 10
305.9
 20
832.6166499999999
 30
0.0
 11
305.9
 21
852.58335
 31
0.0
  0
LINE
  8
0
 62
0
 10
305.9
 20
1011.38335
 30
0.0
 11
302.22190681927043
 21
1011.38335
 31
0.0
  0
LINE
  8
0
 62
0
 10
305.9
 20
852.58335
 30
0.0
 11
302.22190681927043
 21
852.58335
 31
0.0
  0
LINE
  8
0
 62
0
 10
305.9
 20
991.41665
 30
0.0
 11
305.9
 21
1011.3833500000001
 31
0.0
  0
ARC
  8
0
 62
0
 10
301.97557166666667
 20
852.7255716666666
 30
0.0
 40
0.2844433333333333
 50
-180.0
 51
-30.000000000013642
  0
LINE
  8
0
 62
0
 10
305.9
 20
991.41665
 30
0.0
 11
302.22190681927043
 21
991.41665
 31
0.0
  0
ARC
  8
0
 62
0
 10
301.97557166666667
 20
852.7255716666666
 30
0.0
 40
0.2844433333333333
 50
119.99999999999801
 51
-180.0
  0
ARC
  8
0
 62
0
 10
301.97557166666667
 20
991.2744283333334
 30
0.0
 40
0.2844433333333333
 50
30.000000000013642
 51
-180.0
  0
LINE
  8
0
 62
0
 10
301.83335
 20
871.9280931807297
 30
0.0
 11
301.83335
 21
852.9719068192705
 31
0.0
  0
ARC
  8
0
 62
0
 10
301.97557166666667
 20
991.2744283333334
 30
0.0
 40
0.2844433333333333
 50
-180.0
 51
-119.99999999999801
  0
ARC
  8
0
 62
0
 10
301.97557166666667
 20
872.1744283333334
 30
0.0
 40
0.2844433333333333
 50
-180.0
 51
-119.99999999999801
  0
LINE
  8
0
 62
0
 10
301.83335
 20
991.0280931807296
 30
0.0
 11
301.83335
 21
972.0719068192705
 31
0.0
  0
ARC
  8
0
 62
0
 10
301.97557166666667
 20
872.1744283333334
 30
0.0
 40
0.2844433333333333
 50
29.999999999988084
 51
-180.0
  0
ARC
  8
0
 62
0
 10
301.97557166666667
 20
971.8255716666666
 30
0.0
 40
0.2844433333333333
 50
119.99999999999801
 51
-180.0
  0
LINE
  8
0
 62
0
 10
305.9
 20
872.3166500000001
 30
0.0
 11
302.22190681927043
 21
872.3166500000001
 31
0.0
  0
ARC
  8
0
 62
0
 10
301.97557166666667
 20
971.8255716666666
 30
0.0
 40
0.2844433333333333
 50
-180.0
 51
-29.999999999988084
  0
LINE
  8
0
 62
0
 10
305.9
 20
872.31665
 30
0.0
 11
305.9
 21
892.2833499999999
 31
0.0
  0
LINE
  8
0
 62
0
 10
305.9
 20
971.6833499999999
 30
0.0
 11
302.22190681927043
 21
971.6833499999999
 31
0.0
  0
LINE
  8
0
 62
0
 10
305.9
 20
892.2833499999999
 30
0.0
 11
302.22190681927043
 21
892.2833499999999
 31
0.0
  0
LINE
  8
0
 62
0
 10
305.9
 20
951.7166500000001
 30
0.0
 11
305.9
 21
971.68335
 31
0.0
  0
ARC
  8
0
 62
0
 10
301.97557166666667
 20
892.4255716666667
 30
0.0
 40
0.2844433333333333
 50
-180.0
 51
-30.000000000013642
  0
LINE
  8
0
 62
0
 10
305.9
 20
951.7166500000001
 30
0.0
 11
302.22190681927043
 21
951.7166500000001
 31
0.0
  0
ARC
  8
0
 62
0
 10
301.97557166666667
 20
892.4255716666667
 30
0.0
 40
0.2844433333333333
 50
119.99999999999801
 51
-180.0
  0
ARC
  8
0
 62
0
 10
301.97557166666667
 20
951.5744283333333
 30
0.0
 40
0.2844433333333333
 50
30.000000000013642
 51
-180.0
  0
LINE
  8
0
 62
0
 10
301.83335
 20
911.6280931807296
 30
0.0
 11
301.83335
 21
892.6719068192705
 31
0.0
  0
ARC
  8
0
 62
0
 10
301.97557166666667
 20
951.5744283333333
 30
0.0
 40
0.2844433333333333
 50
-180.0
 51
-119.99999999999801
  0
ARC
  8
0
 62
0
 10
301.97557166666667
 20
911.8744283333333
 30
0.0
 40
0.2844433333333333
 50
-180.0
 51
-119.99999999999801
  0
LINE
  8
0
 62
0
 10
301.83335
 20
951.3280931807296
 30
0.0
 11
301.83335
 21
932.3719068192705
 31
0.0
  0
ARC
  8
0
 62
0
 10
301.97557166666667
 20
911.8744283333333
 30
0.0
 40
0.2844433333333333
 50
29.999999999993808
 51
-180.0
  0
ARC
  8
0
 62
0
 10
301.97557166666667
 20
932.1255716666667
 30
0.0
 40
0.2844433333333333
 50
119.99999999999801
 51
-180.0
  0
LINE
  8
0
 62
0
 10
305.9
 20
912.01665
 30
0.0
 11
302.22190681927043
 21
912.01665
 31
0.0
  0
ARC
  8
0
 62
0
 10
301.97557166666667
 20
932.1255716666667
 30
0.0
 40
0.2844433333333333
 50
-180.0
 51
-29.999999999993808
  0
LINE
  8
0
 62
0
 10
305.9
 20
912.01665
 30
0.0
 11
305.9
 21
931.98335
 31
0.0
  0
LINE
  8
0
 62
0
 10
305.9
 20
931.98335
 30
0.0
 11
302.22190681927043
 21
931.98335
 31
0.0
  0
LINE
  8
0
 62
0
 10
303.0250000000001
 20
687.8
 30
0.0
 11
303.0250000000001
 21
691.1999999999998
 31
0.0
  0
ARC
  8
0
 62
0
 10
299.57500000000005
 20
691.1999999999999
 30
0.0
 40
3.4500000000000006
 50
-0.0
 51
-180.0
  0
LINE
  8
0
 62
0
 10
296.12500000000006
 20
687.8000000000001
 30
0.0
 11
296.12500000000006
 21
691.1999999999999
 31
0.0
  0
ARC
  8
0
 62
0
 10
299.5750000000001
 20
687.8
 30
0.0
 40
3.4500000000000006
 50
-180.0
 51
-0.0
  0
LINE
  8
0
 62
0
 10
299.66665
 20
723.1902371465692
 30
0.0
 11
299.66665
 21
719.8097628534308
 31
0.0
  0
ARC
  8
0
 62
0
 10
299.5288733333333
 20
723.4288733333333
 30
0.0
 40
0.2755533333333334
 50
-59.9999999999997
 51
149.9999999999954
  0
ARC
  8
0
 62
0
 10
299.5288733333333
 20
719.5711266666667
 30
0.0
 40
0.2755533333333334
 50
-90.0
 51
59.9999999999997
  0
LINE
  8
0
 62
0
 10
290.3097628534308
 20
723.56665
 30
0.0
 11
299.2902371465692
 21
723.56665
 31
0.0
  0
ARC
  8
0
 62
0
 10
299.5288733333333
 20
719.5711266666667
 30
0.0
 40
0.2755533333333334
 50
-149.9999999999954
 51
-90.0
  0
ARC
  8
0
 62
0
 10
290.07112666666666
 20
723.4288733333333
 30
0.0
 40
0.2755533333333334
 50
30.000000000004608
 51
-120.0000000000003
  0
LINE
  8
0
 62
0
 10
290.3097628534308
 20
719.43335
 30
0.0
 11
299.2902371465692
 21
719.43335
 31
0.0
  0
LINE
  8
0
 62
0
 10
289.93335
 20
723.1902371465692
 30
0.0
 11
289.93335
 21
719.8097628534308
 31
0.0
  0
ARC
  8
0
 62
0
 10
290.07112666666666
 20
719.5711266666667
 30
0.0
 40
0.2755533333333334
 50
-90.0
 51
-30.000000000004608
  0
ARC
  8
0
 62
0
 10
290.07112666666666
 20
719.5711266666667
 30
0.0
 40
0.2755533333333334
 50
120.0000000000003
 51
-90.0
  0
LINE
  8
0
 62
0
 10
299.66665
 20
1124.1902371465692
 30
0.0
 11
299.66665
 21
1120.8097628534308
 31
0.0
  0
ARC
  8
0
 62
0
 10
299.5288733333333
 20
1124.4288733333333
 30
0.0
 40
0.2755533333333334
 50
-59.9999999999997
 51
149.9999999999954
  0
ARC
  8
0
 62
0
 10
299.5288733333333
 20
1120.5711266666667
 30
0.0
 40
0.2755533333333334
 50
-90.0
 51
59.9999999999997
  0
LINE
  8
0
 62
0
 10
290.3097628534308
 20
1124.56665
 30
0.0
 11
299.2902371465692
 21
1124.56665
 31
0.0
  0
ARC
  8
0
 62
0
 10
299.5288733333333
 20
1120.5711266666667
 30
0.0
 40
0.2755533333333334
 50
-149.9999999999954
 51
-90.0
  0
ARC
  8
0
 62
0
 10
290.07112666666666
 20
1124.4288733333333
 30
0.0
 40
0.2755533333333334
 50
30.000000000004608
 51
-120.0000000000003
  0
LINE
  8
0
 62
0
 10
290.3097628534308
 20
1120.43335
 30
0.0
 11
299.2902371465692
 21
1120.43335
 31
0.0
  0
LINE
  8
0
 62
0
 10
289.93335
 20
1124.1902371465692
 30
0.0
 11
289.93335
 21
1120.8097628534308
 31
0.0
  0
ARC
  8
0
 62
0
 10
290.07112666666666
 20
1120.5711266666667
 30
0.0
 40
0.2755533333333334
 50
-90.0
 51
-30.000000000004608
  0
ARC
  8
0
 62
0
 10
290.07112666666666
 20
1120.5711266666667
 30
0.0
 40
0.2755533333333334
 50
120.0000000000003
 51
-90.0
  0
LINE
  8
0
 62
0
 10
277.46664999999996
 20
723.1902371465692
 30
0.0
 11
277.46664999999996
 21
719.8097628534308
 31
0.0
  0
ARC
  8
0
 62
0
 10
277.3288733333333
 20
723.4288733333333
 30
0.0
 40
0.2755533333333334
 50
-59.9999999999997
 51
149.9999999999954
  0
ARC
  8
0
 62
0
 10
277.3288733333333
 20
719.5711266666667
 30
0.0
 40
0.2755533333333334
 50
-90.0
 51
59.9999999999997
  0
LINE
  8
0
 62
0
 10
268.1097628534308
 20
723.56665
 30
0.0
 11
277.09023714656917
 21
723.56665
 31
0.0
  0
ARC
  8
0
 62
0
 10
277.3288733333333
 20
719.5711266666667
 30
0.0
 40
0.2755533333333334
 50
-149.9999999999954
 51
-90.0
  0
ARC
  8
0
 62
0
 10
267.87112666666667
 20
723.4288733333333
 30
0.0
 40
0.2755533333333334
 50
30.000000000004608
 51
-120.0000000000003
  0
LINE
  8
0
 62
0
 10
268.10976285343077
 20
719.43335
 30
0.0
 11
277.09023714656917
 21
719.43335
 31
0.0
  0
LINE
  8
0
 62
0
 10
267.73335
 20
723.1902371465692
 30
0.0
 11
267.73335
 21
719.8097628534308
 31
0.0
  0
ARC
  8
0
 62
0
 10
267.87112666666667
 20
719.5711266666667
 30
0.0
 40
0.2755533333333334
 50
-90.0
 51
-30.000000000004608
  0
ARC
  8
0
 62
0
 10
267.87112666666667
 20
719.5711266666667
 30
0.0
 40
0.2755533333333334
 50
120.0000000000003
 51
-90.0
  0
LINE
  8
0
 62
0
 10
277.46664999999996
 20
1124.1902371465692
 30
0.0
 11
277.46664999999996
 21
1120.8097628534308
 31
0.0
  0
ARC
  8
0
 62
0
 10
277.3288733333333
 20
1124.4288733333333
 30
0.0
 40
0.2755533333333334
 50
-59.9999999999997
 51
149.9999999999954
  0
ARC
  8
0
 62
0
 10
277.3288733333333
 20
1120.5711266666667
 30
0.0
 40
0.2755533333333334
 50
-90.0
 51
59.9999999999997
  0
LINE
  8
0
 62
0
 10
268.1097628534308
 20
1124.56665
 30
0.0
 11
277.09023714656917
 21
1124.56665
 31
0.0
  0
ARC
  8
0
 62
0
 10
277.3288733333333
 20
1120.5711266666667
 30
0.0
 40
0.2755533333333334
 50
-149.9999999999954
 51
-90.0
  0
ARC
  8
0
 62
0
 10
267.87112666666667
 20
1124.4288733333333
 30
0.0
 40
0.2755533333333334
 50
30.000000000004608
 51
-120.0000000000003
  0
LINE
  8
0
 62
0
 10
268.10976285343077
 20
1120.43335
 30
0.0
 11
277.09023714656917
 21
1120.43335
 31
0.0
  0
LINE
  8
0
 62
0
 10
267.73335
 20
1124.1902371465692
 30
0.0
 11
267.73335
 21
1120.8097628534308
 31
0.0
  0
ARC
  8
0
 62
0
 10
267.87112666666667
 20
1120.5711266666667
 30
0.0
 40
0.2755533333333334
 50
-90.0
 51
-30.000000000004608
  0
ARC
  8
0
 62
0
 10
267.87112666666667
 20
1120.5711266666667
 30
0.0
 40
0.2755533333333334
 50
120.0000000000003
 51
-90.0
  0
LINE
  8
0
 62
0
 10
271.27500000000003
 20
687.8000000000001
 30
0.0
 11
271.27500000000003
 21
691.2
 31
0.0
  0
ARC
  8
0
 62
0
 10
267.82500000000005
 20
691.2
 30
0.0
 40
3.4500000000000006
 50
-0.0
 51
-180.0
  0
LINE
  8
0
 62
0
 10
264.37500000000006
 20
687.8000000000001
 30
0.0
 11
264.37500000000006
 21
691.2
 31
0.0
  0
ARC
  8
0
 62
0
 10
267.82500000000005
 20
687.8
 30
0.0
 40
3.4500000000000006
 50
-180.0
 51
-0.0
  0
LINE
  8
0
 62
0
 10
303.0249999999999
 20
1152.8
 30
0.0
 11
303.0249999999999
 21
1156.1999999999998
 31
0.0
  0
ARC
  8
0
 62
0
 10
299.57499999999993
 20
1156.2
 30
0.0
 40
3.4500000000000006
 50
-0.0
 51
-180.0
  0
LINE
  8
0
 62
0
 10
296.1249999999999
 20
1152.8
 30
0.0
 11
296.1249999999999
 21
1156.1999999999998
 31
0.0
  0
ARC
  8
0
 62
0
 10
299.57499999999993
 20
1152.8
 30
0.0
 40
3.4500000000000006
 50
-180.0
 51
-0.0
  0
LINE
  8
0
 62
0
 10
264.375
 20
1152.8
 30
0.0
 11
264.375
 21
1156.1999999999998
 31
0.0
  0
ARC
  8
0
 62
0
 10
267.825
 20
1152.8
 30
0.0
 40
3.4500000000000006
 50
-180.0
 51
-0.0
  0
LINE
  8
0
 62
0
 10
271.275
 20
1152.8
 30
0.0
 11
271.275
 21
1156.1999999999998
 31
0.0
  0
ARC
  8
0
 62
0
 10
267.825
 20
1156.2
 30
0.0
 40
3.4500000000000006
 50
-0.0
 51
-180.0
  0
ENDBLK
  0
ENDSEC
  0
SECTION
  2
ENTITIES
  0
INSERT
  2
SHAPE2DVIEW
  8
0
 62
0
 10
0.0
 20
0.0
 30
0.0
  0
INSERT
  2
SHAPE2DVIEW003
  8
0
 62
0
 10
0.0
 20
0.0
 30
0.0
  0
INSERT
  2
SHAPE2DVIEW001
  8
0
 62
0
 10
0.0
 20
0.0
 30
0.0
  0
INSERT
  2
SHAPE2DVIEW004
  8
0
 62
0
 10
0.0
 20
0.0
 30
0.0
  0
INSERT
  2
SHAPE2DVIEW002
  8
0
 62
0
 10
0.0
 20
0.0
 30
0.0
  0
INSERT
  2
SHAPE2DVIEW005
  8
0
 62
0
 10
0.0
 20
0.0
 30
0.0
  0
ENDSEC
  0
EOF
